<?xml version="1.0" encoding="UTF-8" standalone="no"?>
<!-- Created with Inkscape (http://www.inkscape.org/) -->

<svg
   width="260.76141mm"
   height="260.76141mm"
   viewBox="0 0 260.76141 260.76141"
   version="1.1"
   id="SVGRoot"
   xmlns:xlink="http://www.w3.org/1999/xlink"
   xmlns="http://www.w3.org/2000/svg"
   xmlns:svg="http://www.w3.org/2000/svg">
  <defs
     id="defs44">
    <linearGradient
       id="linearGradient6195">
      <stop
         style="stop-color:#0000ff;stop-opacity:1;"
         offset="0"
         id="stop6191" />
      <stop
         style="stop-color:#ff1717;stop-opacity:0.98431373"
         offset="1"
         id="stop6193" />
    </linearGradient>
    <linearGradient
       id="linearGradient4279">
      <stop
         style="stop-color:#def5f0;stop-opacity:0.97647059"
         offset="0"
         id="stop4275" />
      <stop
         style="stop-color:#55ad99;stop-opacity:0.97647059"
         offset="0.39460379"
         id="stop4511" />
      <stop
         style="stop-color:#206e5c;stop-opacity:0.97647059"
         offset="1"
         id="stop4277" />
    </linearGradient>
    <linearGradient
       id="linearGradient18226">
      <stop
         style="stop-color:#1312ff;stop-opacity:1;"
         offset="0"
         id="stop18224" />
    </linearGradient>
    <linearGradient
       id="linearGradient5789">
      <stop
         style="stop-color:#0a0000;stop-opacity:1;"
         offset="0"
         id="stop5787" />
    </linearGradient>
    <linearGradient
       id="linearGradient2750">
      <stop
         style="stop-color:#0a0000;stop-opacity:1;"
         offset="0"
         id="stop2748" />
    </linearGradient>
    <clipPath
       clipPathUnits="userSpaceOnUse"
       id="clipPath14363">
      <g
         id="g14369"
         transform="translate(-151.57701,26.558501)">
        <rect
           style="fill:#000000;fill-opacity:1;fill-rule:evenodd;stroke:#000000;stroke-width:4.01252;stroke-linecap:round;stroke-linejoin:round;stroke-miterlimit:4;stroke-dasharray:none;stroke-opacity:1;paint-order:markers fill stroke"
           id="rect14365"
           width="75.034927"
           height="80.568924"
           x="-15.561789"
           y="232.96196"
           ry="17.925333" />
        <rect
           style="fill:#000000;fill-opacity:1;fill-rule:evenodd;stroke:#000000;stroke-width:2.89999;stroke-linecap:round;stroke-linejoin:round;stroke-miterlimit:4;stroke-dasharray:none;stroke-opacity:1;paint-order:markers fill stroke"
           id="rect14367"
           width="537.35162"
           height="355.46277"
           x="-225.31355"
           y="-105.31647"
           ry="17.925335" />
      </g>
    </clipPath>
    <clipPath
       clipPathUnits="userSpaceOnUse"
       id="clipPath6990">
      <rect
         style="fill:#000000;fill-opacity:1;fill-rule:evenodd;stroke:none;stroke-width:2.47361;stroke-linecap:round;stroke-linejoin:round;stroke-miterlimit:4;stroke-dasharray:none;stroke-opacity:1;paint-order:markers fill stroke"
         id="rect6992"
         width="298.39621"
         height="56.678604"
         x="560.11786"
         y="-16.670174"
         ry="0" />
    </clipPath>
    <clipPath
       clipPathUnits="userSpaceOnUse"
       id="clipPath7102">
      <rect
         style="fill:#000000;fill-opacity:1;fill-rule:evenodd;stroke:none;stroke-width:1.88976;stroke-linecap:round;stroke-linejoin:round;stroke-miterlimit:4;stroke-dasharray:none;stroke-opacity:1;paint-order:markers fill stroke"
         id="rect7104"
         width="345.0726"
         height="71.681747"
         x="536.7796"
         y="-31.673332"
         ry="35.840874" />
    </clipPath>
    <radialGradient
       xlink:href="#linearGradient4279"
       id="radialGradient4283"
       gradientUnits="userSpaceOnUse"
       gradientTransform="matrix(1,0,0,0.74957847,0,36.725351)"
       cx="121.73393"
       cy="146.65413"
       fx="121.73393"
       fy="146.65413"
       r="261.55154" />
    <filter
       style="color-interpolation-filters:sRGB"
       id="filter5370"
       x="-0.022216846"
       y="-0.015962783"
       width="1.0444337"
       height="1.0319256">
      <feGaussianBlur
         stdDeviation="1.7297928"
         id="feGaussianBlur5372" />
    </filter>
    <radialGradient
       xlink:href="#linearGradient6195"
       id="radialGradient6269"
       cx="4265.9556"
       cy="185.4353"
       fx="3997.0466"
       fy="245.05119"
       r="244.12947"
       gradientTransform="matrix(-0.15505928,1.0026174,-1.1362319,-0.17576106,895.10877,-4282.4604)"
       gradientUnits="userSpaceOnUse" />
    <radialGradient
       xlink:href="#linearGradient6195"
       id="radialGradient9311"
       gradientUnits="userSpaceOnUse"
       gradientTransform="matrix(1.4564568,-0.01501502,0.01030873,0.99994686,-68.649527,2.2247832)"
       cx="147.75684"
       cy="116.88219"
       fx="147.75684"
       fy="116.88219"
       r="146.87456" />
    <clipPath
       clipPathUnits="userSpaceOnUse"
       id="clipPath11472">
      <rect
         style="opacity:0.426267;fill:#0000ff;fill-rule:evenodd;stroke-width:0.264583"
         id="rect11474"
         width="282.28162"
         height="282.28162"
         x="-6.1749105"
         y="-19.40686"
         ry="37.931591" />
    </clipPath>
  </defs>
  <g
     id="layer1"
     style="display:none">
    <rect
       style="display:inline;opacity:0.903226;fill:url(#radialGradient4283);fill-opacity:1;stroke-width:2.25155;stroke-linejoin:round;paint-order:markers fill stroke"
       id="rect1094"
       width="523.10309"
       height="392.10681"
       x="-139.81761"
       y="-49.399281" />
  </g>
  <g
     id="layer5"
     style="display:inline">
    <rect
       style="opacity:1;fill:url(#radialGradient6269);fill-opacity:1;fill-rule:evenodd;stroke-width:0.264583"
       id="rect6159"
       width="488.25894"
       height="335.20941"
       x="-98.357498"
       y="-36.608395"
       clip-path="url(#clipPath11472)"
       transform="matrix(1.0415793,0,0,1.0415793,-2.6775235,-6.2353283)" />
  </g>
  <g
     id="layer4"
     style="display:none"
     transform="translate(151.57701,-26.558501)">
    <g
       id="g951"
       style="fill:#000000"
       transform="translate(-2.5248596e-8,-12.34982)">
      <g
         transform="matrix(0.15290355,0,0,-0.11550011,-248.78808,377.49944)"
         style="stroke:#000000;stroke-width:32.357"
         id="g22245">
        <g
           id="path22231">
          <path
             style="color:#000000;stroke:none;-inkscape-stroke:none"
             d="m 1560,2979 c -82.7101,-156.7919 -185.4139,-321.6878 -167.0747,-506.6189 29.6914,-62.7752 56.8523,-135.4251 67.7346,-200.6733 -60.8308,-38.5972 -167.3455,-40.3628 -164.7971,-135.9919 -35.6296,14.1417 -7.0537,-64.0488 -63.451,-60.4582 -104.0117,-14.3688 -186.4335,-81.7176 -264.59195,-146.5922 -71.95344,-30.9276 -133.29938,-99.3438 -72.73886,-174.1403 36.62066,-82.2305 -25.21074,-187.7947 44.43706,-261.3979 65.12025,-63.3927 55.88977,32.2322 9.83315,57.3686 -48.16409,62.148 44.29069,151.9583 -22.37694,211.9894 -101.35715,49.0443 32.67226,140.7358 97.93504,148.3029 80.5464,78.2517 176.7292,137.7401 284.1038,175.6317 23.3738,12.9671 100.8648,65.0321 37.1109,75.8392 17.4913,97.0656 151.6914,73.215 204.98,141.9714 77.1422,-9.0474 174.0309,-39.3412 209.0746,57.608 105.1487,135.7044 212.8822,286.7924 220.6761,464.6947 66.869,9.1238 22.4123,-116.7377 53.9512,-158.257 14.0066,-58.4414 4.035,-221.1762 -2.0255,-195.9895 58.6883,98.1094 5.9143,212.832 11.9197,318.3344 -4.1154,40.5682 -18.409,166.1691 -66.6115,132.0661 -42.5838,-164.3695 -103.5861,-323.9458 -178.4248,-475.8224 -43.9155,-67.7831 -104.816,54.9092 -94.002,25.0513 4.1087,-126.9792 -89.8932,92.6861 -49.1835,-18.8585 -64.5907,-26.4775 -76.4413,114.8532 -76.1503,166.1042 -11.6159,119.6556 -7.5758,240.2664 -20.328,359.8382 z m 24.3339,-530.8643 c -33.134,-37.8217 -67.3782,32.3132 -45.4788,-5.2014 29.2736,-55.7765 -52.3646,-10.7154 -38.7229,-20.8637 127.6536,-109.4677 -71.3769,-43.952 -60.9476,21.3729 -15.53,95.7832 -21.105,195.3411 11.9992,288.4527 22.8863,48.1144 38.5755,143.1881 90.2393,149.6179 18.8083,-64.6787 -1.047,-136.2104 14.0332,-204.4273 2.2938,-40.4248 24.567,-188.6873 28.8776,-228.9511 z M 1543,2349 c -30.2024,-40.3751 -57.8655,30.3912 0,0 z"
             id="path1722" />
          <path
             style="color:#000000;stroke:none;-inkscape-stroke:none"
             d="m 975.94922,1455.6621 c -16.91093,-0.9893 -30.11692,8.7401 -47.7168,25.8731 l -0.23828,0.2304 -0.22656,0.2422 c -39.12069,41.3424 -41.23325,92.5239 -39.01367,139.3496 2.18955,46.1923 7.25384,89.7026 -7.85938,125.1172 -31.81223,40.7678 -32.30999,85.0041 -13.29687,119.3984 18.94755,34.2758 53.96265,60.0062 91.49609,76.5684 77.78535,64.5571 162.19355,133.7963 271.10355,148.8418 l 1.6152,0.2246 1.627,-0.1035 c 10.47,-0.6666 12.8017,1.3689 15.5195,4.459 2.7177,3.0901 5.2593,9.5044 7.2773,17.5273 2.0181,8.023 2.8379,16.9543 8.7871,26.7422 2.9212,4.8061 8.2911,10.1503 15.4082,12.3086 2.1175,19.3312 8.6938,35.8212 18.5723,49.0977 12.6895,17.0544 29.952,28.7362 48.166,37.9843 32.4304,16.4665 68.8082,26.4481 95.3985,40.4786 -11.5868,60.162 -36.6815,127.1369 -64.2676,185.4609 l -1.1992,2.5332 -0.2754,2.7891 c -19.0178,191.7733 86.5499,359.7201 168.8652,515.7636 l 24.7656,46.9512 5.6309,-52.7852 c 12.9121,-121.0707 8.8637,-241.7345 20.3437,-359.9902 l 0.08,-0.8242 -0.01,-0.8301 c -0.138,-24.2941 2.8984,-71.9431 13.1211,-107.6562 5.1113,-17.8566 12.3481,-32.4942 19.1796,-39.418 2.0521,-2.0798 3.7941,-3.6237 5.5332,-4.7285 -1.148,3.459 -2.2199,6.7381 -2.8828,9.1816 -0.8288,3.0554 -2.341,3.4564 -1.2148,11.2129 0.2815,1.9391 0.7225,5.0475 4.0644,8.8047 3.342,3.7572 10.3475,5.9171 14.4473,5.3828 8.1996,-1.0685 8.7718,-3.7695 10.0586,-5.0137 5.147,-4.9767 6.404,-8.0616 9.8984,-13.3242 3.4945,-5.2625 7.5782,-11.4897 11.8067,-17.4199 2.9531,-4.1415 5.902,-7.8703 8.6933,-11.1563 0.2866,3.9409 0.4245,8.8394 0.2911,14.6993 -0.3165,0.9905 -0.6941,1.7756 -0.9688,3.2929 -0.272,1.5025 -2.0518,2.9051 1.0645,10.086 1.5581,3.5904 7.1175,8.8265 12.4941,9.6601 5.3766,0.8337 8.3224,-0.746 10.0508,-1.6269 6.9133,-3.5237 5.6188,-4.3618 6.7558,-5.7031 1.1371,-1.3414 2.2212,-2.7268 3.4668,-4.3223 4.9824,-6.3822 12.447,-16.0465 20.9395,-24.1465 8.4925,-8.1 17.8842,-13.7029 23.6836,-14.4473 5.6986,-0.7314 10.1489,-0.273 18.6875,12.6836 74.1483,150.6462 134.573,308.8261 176.7519,471.6328 l 1.4844,5.7305 4.832,3.4199 c 8.0904,5.7239 17.2948,9.2005 26.6836,8.7325 9.3889,-0.4681 17.7411,-4.959 23.8457,-10.6387 12.2093,-11.3594 18.6479,-27.1547 24.0899,-44.4863 10.884,-34.6634 15.3553,-76.7608 17.4336,-97.2481 l 0.1289,-1.2734 -0.074,-1.2793 c -2.831,-49.7345 8.5246,-104.0903 13.7519,-159.5 4.8723,-51.646 4.0485,-105.1385 -21.8867,-155.3047 -0.4845,-3.162 -1.1117,-6.1716 -2.4277,-9.6055 -0.558,-1.4558 -1.0066,-3.1251 -3.5508,-6.0312 -1.2721,-1.4531 -3.2675,-3.4238 -6.8926,-4.7578 -3.6251,-1.3341 -8.8923,-1.1632 -12.4141,0.3886 -7.0434,3.1037 -7.8727,6.8526 -8.7851,8.8477 -0.9124,1.9951 -1.2609,3.3723 -1.5957,4.7637 l -1.5449,6.4218 3.3906,5.668 c 0.8884,1.4851 1.6779,2.9865 2.5117,4.4805 0.089,0.6 0.082,0.358 0.1602,0.9882 1.4559,11.7237 2.8417,31.3233 3.58,53.4004 1.4343,42.8847 -0.019,96.5424 -5.6054,122.5704 -9.327,14.2975 -11.9086,31.3017 -13.2032,48.5625 -1.402,18.6944 -0.8597,38.2058 -1.4296,55.2617 -0.57,17.0558 -2.8201,31.5781 -6.2442,38.2519 -0.9753,1.901 -1.8634,3.0524 -2.7617,3.9258 -14.0547,-175.3697 -119.953,-323.0657 -221.5469,-454.2793 -19.7136,-51.5372 -60.1251,-72.8892 -101.4902,-76.582 -39.0104,-3.4826 -79.7106,5.0362 -115.1777,9.8008 -31.4679,-34.3617 -78.5037,-44.9223 -117.1778,-58.3907 -20.6527,-7.1924 -39.081,-15.0402 -52.4707,-25.5742 -10.0222,-7.8847 -17.522,-16.8662 -22.2187,-29.5215 2.297,-0.981 4.5195,-2.0597 6.6015,-3.373 6.654,-4.1971 12.334,-11.2837 13.9414,-19.2324 3.2149,-15.8975 -5.582,-27.0495 -14.0742,-36.5274 -16.9844,-18.9558 -42.3427,-34.8198 -55.4297,-42.0801 l -1.1855,-0.6582 -1.2793,-0.4511 c -105.2226,-37.1322 -199.3443,-95.3588 -278.2129,-171.9805 l -3.9473,-3.832 -5.4629,-0.6348 c -26.4636,-3.0684 -76.02398,-27.2237 -101.6816,-53.7695 -12.82882,-13.2729 -18.96356,-26.2417 -18.58985,-34.9707 0.37372,-8.7291 5.21785,-18.1365 27.51953,-28.9278 l 2.07032,-1.0019 1.70898,-1.5391 c 19.53939,-17.5943 28.42459,-39.3815 30.14649,-60.4121 1.72189,-21.0306 -2.63701,-41.3108 -7.08594,-60.4707 -4.44894,-19.1599 -9.05196,-37.3082 -9.79102,-52.9902 -0.69517,-14.7509 1.51547,-26.6641 9.55274,-38.0684 13.26703,-8.2628 23.07971,-20.2432 29.95898,-32.7617 7.48177,-13.615 11.77577,-27.7627 11.72267,-41.2559 -0.027,-6.7465 -1.0418,-13.6331 -5.16603,-20.2832 -4.12427,-6.65 -12.73399,-12.1088 -21.18945,-12.6035 z m -6.16016,34.7012 c -0.37794,5.8695 -2.8289,15.2399 -7.56445,23.8574 -5.16735,9.4033 -12.69578,17.7477 -20.62305,22.0742 l -2.96679,1.6192 -2.07227,2.6718 c -7.27095,9.382 -11.92047,19.5072 -14.66797,29.8204 2.84124,-24.2746 10.65174,-46.2177 29.11524,-65.8633 8.26518,-8.0028 14.72648,-12.0236 18.77929,-14.1797 z m -48.48047,133.3633 c 2.17932,12.8049 5.25885,25.2686 8.03321,37.2168 4.31078,18.5649 7.55565,35.877 6.35742,50.5117 -1.16245,14.1977 -5.56359,25.8726 -18.41602,37.8984 -1.19484,0.6136 -2.34099,1.2528 -3.49023,1.8906 15.27576,-42.3437 9.67908,-86.786 7.51562,-127.5175 z m 2.42188,258.9707 c 28.70048,22.1801 63.77889,38.3027 93.55863,43.1484 49.1938,47.1887 104.0273,87.5864 163.5136,120.5781 -74.6656,-25.1767 -139.292,-77.6171 -202.65036,-130.207 l -1.79687,-1.4922 -2.14649,-0.9219 c -18.52222,-7.9613 -36.02436,-18.7627 -50.47851,-31.1054 z m 360.66603,211.9043 c 5.837,2.2254 11.7097,4.3812 17.6133,6.4785 10.6673,6.0313 34.761,22.119 46.1816,34.8652 2.8604,3.1924 4.3155,5.9218 5.1426,7.586 -1.8977,0.8495 -4.8505,1.919 -9.9141,2.7773 l -16.1172,2.7324 2.8985,16.0879 c 2.2974,12.7491 6.6296,23.9665 12.3242,33.8477 -6.9504,-5.0447 -12.9363,-10.5365 -17.5625,-16.7539 -8.4662,-11.3784 -13.4849,-25.1704 -12.9277,-46.0762 l 0.6543,-24.5156 -20.9727,8.3242 c -0.8791,-2.6125 -2.2031,-6.9116 -4.1016,-14.459 -0.8498,-3.3785 -1.925,-7.0965 -3.2187,-10.8945 z m 192.0371,180.7148 c 25.5505,9.6234 47.9081,20.7931 61.8828,38.8242 l 5.5977,7.2227 9.0742,-1.0645 c 39.8676,-4.6757 82.5798,-13.9714 117.0019,-10.8984 34.4222,3.073 59.2544,14.4524 74.9727,57.9375 l 0.8672,2.3965 1.5605,2.0136 c 10.0572,12.9797 20.0534,26.1953 30.0254,39.4239 -4.8837,-1.1105 -9.786,-1.4471 -14.5469,-0.836 -17.6327,2.2634 -31.0261,12.7571 -41.8964,23.125 -0.7655,0.7301 -1.4229,1.4711 -2.1641,2.2071 -0.146,-0.4874 -0.2269,-1.0309 -0.3848,-1.5098 -1.6296,-4.9439 -4.0194,-9.8527 -8.7871,-13.9043 -4.7676,-4.0516 -12.1325,-5.944 -17.75,-5.209 -11.235,1.4701 -16.6933,7.4686 -22.3008,13.2207 -2.8683,2.9423 -5.5925,6.1293 -8.2089,9.4219 -20.6188,-7.8732 -42.3212,-1.8778 -55.6036,11.584 -2.2351,2.2653 -4.2628,4.7174 -6.2031,7.25 0.1983,-1.711 0.6926,-5.197 0.8496,-6.6641 l 0.7559,-7.0488 -4.6719,-5.334 c -10.1771,-11.617 -23.6034,-17.2667 -35.4922,-16.9941 -0.5802,-4.8321 -2.2018,-9.7027 -5.6289,-13.5977 -3.0061,-3.4166 -6.5353,-5.4326 -10.0332,-6.7031 0.3263,-0.4013 0.7421,-0.8422 1.0567,-1.2383 7.8322,-9.8637 13.547,-17.6628 12.7324,-29.9687 -0.191,-2.8843 -1.1901,-5.9479 -2.6621,-8.7774 l 10.8437,-5.6933 -11.3652,-15.1934 c -9.618,-12.8575 -22.4646,-20.2222 -35.1426,-19.1934 -12.678,1.0288 -21.9638,9.1647 -25.9062,19.25 -1.9713,5.0427 -2.8228,11.1599 -0.5938,17.6211 0.046,0.1322 0.1426,0.2512 0.1914,0.3828 -14.7383,6.613 -30.0038,16.0505 -43.041,27.7325 -2.5613,2.295 -5.0353,4.7451 -7.4414,7.2714 14.2963,-39.0122 25.9762,-78.9477 32.4121,-117.0566 z m 40.9707,107.7754 c -5.9481,6.7593 -14.8409,15.5049 -27.1992,26.1445 -1.0604,0.614 -1.6853,0.076 -5.0801,5.2364 -0.9194,1.3976 -2.6948,3.5411 -2.7227,8.957 -0.028,5.4158 5.202,12.8005 9.1817,14.7285 7.9593,3.8559 8.9729,1.5998 10.2812,1.3711 5.2333,-0.9146 5.573,-1.5949 8.2246,-2.5625 4.6153,-1.6841 10.7074,-3.7452 16.0196,-5.0488 -0.5027,1.1151 -0.802,1.9758 -1.4864,3.291 -2.4383,4.1618 -4.1817,7.0029 -5.1679,8.5762 -0.5179,0.8262 -0.7834,1.2254 -1.2188,1.9453 -0.1088,0.1799 -0.2252,0.367 -0.4765,0.83 -0.1257,0.2316 -0.283,0.5112 -0.5625,1.1329 -0.2795,0.6216 -0.9081,0.7755 -1.3457,4.9941 -0.2189,2.1093 4.6064,13.0673 4.6074,13.0684 10e-4,10e-4 13.8339,4.8617 16.5215,3.9824 5.3751,-1.7587 4.9991,-2.6555 5.584,-3.1621 1.1697,-1.0133 1.2324,-1.1806 1.4335,-1.4004 1.6093,-1.7586 1.5003,-1.7552 2.6622,-2.9883 1.1618,-1.2331 2.7338,-2.773 4.5136,-4.2227 3.5597,-2.8992 7.7917,-4.9719 10.4317,-5.207 1.6868,-0.1502 3.2808,-0.1194 5.6406,1.4883 -2.5702,21.8257 -8.2761,62.8972 -14.1387,106.1309 -6.3,46.4599 -12.3062,92.0156 -13.6894,114.4765 -14.225,65.9808 -0.03,130.1012 -9.6543,184.8985 -2.9127,-2.1153 -5.799,-4.679 -8.7539,-8.1133 -7.3659,-8.561 -14.3752,-21.2329 -20.6504,-35.7285 -12.377,-28.5904 -21.7161,-63.4498 -34.0586,-89.8204 -31.5416,-89.0349 -26.4689,-185.5541 -11.1465,-280.0566 l 0.416,-2.5703 -0.4101,-2.5703 c -1.278,-8.0045 4.7338,-19.8989 17.8945,-31.6914 12.7641,-11.4372 30.6449,-21.2968 44.3496,-26.1094 z m -7.0273,51.5059 c -0.7698,0.8545 -0.8865,0.6752 -0.5879,0.4531 l 0.4492,-0.334 z m -87.9727,11.7675 c -6.5787,41.6516 -11.3072,84.2532 -11.6855,127.002 -4.0537,-31.78 -4.9443,-64.0382 -1.8946,-96.8438 4.619,-9.8323 9.1373,-19.9256 13.5801,-30.1582 z m 272.1875,17.586 c -0.087,0.106 -0.3064,0.3897 -0.375,0.4707 -0.3156,0.3723 -0.5812,0.2518 0.375,-0.4707 z m 152.9258,46.2578 c 60.8413,93.574 108.3741,193.9678 116.373,304.0273 -32.1191,-103.8338 -71.2695,-205.4198 -116.373,-304.0273 z m 176.6699,314.1113 c -2.6839,18.2877 -6.3776,38.5526 -11.6953,55.4883 -4.6712,14.8767 -11.1035,26.6232 -15.2598,30.4902 -2.0781,1.9335 -2.7808,1.9781 -3.416,2.0098 -0.3086,0.015 -0.9206,-0.01 -1.8906,-0.3418 -6.1743,-23.5398 -12.7947,-46.9535 -19.7031,-70.2832 l 6.4453,0.8789 c 10.708,1.461 20.9853,0.3368 29.7031,-4.0664 6.6546,-3.3611 11.9065,-8.4685 15.8164,-14.1758 z m -489.7656,72.334 c 1.6463,0.3542 3.2973,0.7017 5.0039,0.9141 l 10.6484,1.3261 c -0.4662,8.1143 -0.9784,16.2198 -1.5429,24.3145 -4.739,-8.8265 -9.3745,-17.6919 -14.1094,-26.5547 z"
             id="path1724" />
        </g>
        <g
           id="path22233">
          <path
             style="color:#000000;stroke:none;-inkscape-stroke:none"
             d="M 1984.143,2641.2025 C 1959.0288,2519.1678 1872.2547,2434.0184 1825,2321 c 119.7252,20.4843 115.1826,164.0785 142.4896,254.6985 4.6415,19.173 26.448,107.0045 16.6534,65.504 z"
             id="path1730" />
          <path
             style="color:#000000;stroke:none;-inkscape-stroke:none"
             d="m 1798.7207,2300.0898 11.3535,27.1504 c 44.4909,106.4083 119.1598,185.7215 150.25,286.8418 2.0072,8.0897 3.3885,13.7831 5.2129,21.0567 2.41,9.6085 4.294,17.0581 5.1856,20.3105 0.1114,0.4066 0.2034,0.7376 0.3378,1.1817 0.067,0.222 0.1251,0.4312 0.3223,0.9804 0.099,0.2746 0.1876,0.5776 0.6035,1.4629 0.208,0.4427 0.4258,0.9917 1.2891,2.2559 0.8633,1.2642 11.5553,6.9588 11.5566,6.959 0,1e-4 16.9243,-9.7397 17.5391,-12.2891 0.6148,-2.5494 0.457,-3.2862 0.4512,-3.9473 -0.012,-1.3221 -0.094,-1.6407 -0.1368,-1.9746 -0.086,-0.6677 -0.1323,-0.8791 -0.1777,-1.1211 -0.091,-0.4839 -0.1668,-0.8367 -0.2656,-1.2929 -0.3954,-1.825 -1.1216,-4.958 -2.3535,-10.1778 l 0.1015,0.4551 c -2.3972,-11.6488 -5.461,-22.8487 -8.8066,-33.8555 -3.0504,-12.3063 -6.6393,-26.7017 -7.9688,-32.1933 l -0.1054,-0.4336 -0.1289,-0.4277 c -12.9009,-42.8124 -18.6241,-101.8243 -36.791,-154.2774 -18.167,-52.4531 -52.3709,-100.3935 -118.461,-111.7012 z m 56.416,47.2618 c 31.2512,15.458 47.9678,43.8756 60.4766,79.9922 4.598,13.2759 8.2678,27.4981 11.6074,42.041 -24.7195,-40.7782 -50.8864,-80.1267 -72.084,-122.0332 z"
             id="path1732" />
        </g>
        <g
           id="path22235">
          <path
             style="color:#000000;stroke:none;-inkscape-stroke:none"
             d="m 1945.6198,2321.8897 c -53.5413,-90.4908 -247.2712,-84.6949 -204.1925,-211.5023 -1.388,-113.398 -118.5304,-148.7167 -188.9394,-209.0448 -51.8988,-86.0393 -3.4954,-189.6295 -22.6137,-282.6925 0.2198,-116.0725 -5.8475,-241.6474 -76.5399,-339.1546 104.5177,47.8121 94.7174,179.9452 90.1132,275.8536 0.395,109.2509 -17.7649,224.2138 19.8553,328.907 60.3267,95.7025 160.551,54.1941 164.1478,-90.2983 -4.1143,-238.5852 -25.7184,-488.007 -103.9758,-708.1206 25.2668,-29.6243 37.5191,-95.21178 68.1708,-104.1803 9.0228,96.8727 -38.5051,141.2419 9.4701,244.12 29.9215,44.3092 28.8973,218.009 108.9301,143.4851 72.6894,-120.6099 152.4433,-242.2509 180.1565,-382.93477 -13.1132,-30.38327 -4.9247,-174.87522 14.3974,-75.32667 21.3563,133.95274 -34.9876,260.62394 -115.1525,371.61164 -56.6561,79.357 -154.2971,156.3847 -119.3133,266.4808 13.6956,97.7362 3.1767,193.4918 -3.3015,286.3146 2.8963,57.5085 -0.3904,80.9589 -4.1753,116.9558 -20.3474,74.2114 7.1185,170.2839 16.9388,244.9685 207.0194,75.4971 293.5965,425.2193 237.3372,201.2239 -29.8836,-54.7276 -71.3133,-76.6661 -71.3133,-76.6661 z M 1108,989 c 36.6236,73.7991 26.9342,212.3676 137.3596,216.0764 103.1592,27.5945 183.3988,-57.4104 225.5827,-131.0293 -9.7735,58.8131 -46.8792,101.908 -64.5043,134.017 -55.9306,57.3088 -215.0603,-40.1429 -172.5114,94.4201 76.1297,0.928 -60.1983,59.3627 -34.4291,118.2512 14.2969,73.28 115.1639,70.3123 143.4239,142.4141 40.6188,54.657 69.275,116.9744 94.7401,179.8062 42.8706,-90.9415 21.3742,-200.5258 -15.4142,-289.8329 -15.5778,-44.3731 -91.408,-129.0368 -89.0805,-135.3383 130.2807,93.819 176.4728,269.7123 144.4885,421.5868 23.9232,41.6517 -1.7123,167.5218 -47.2891,108.6141 -0.3515,-159.0838 -117.6193,-286.7165 -232.6816,-382.3972 -45.4093,-27.3845 -157.1575,-18.9132 -167.1879,-46.9892 93.0244,16.4404 202.3614,-83.7275 149.8597,-176.9761 -29.6999,-100.8809 -105.3061,-219.2144 -106.1678,-327.71308 60.5121,-239.29769 118.9217,-34.66478 73.4117,-30.72159 C 1121.611,911.27452 1100.2623,949.43196 1108,989 Z"
             id="path1738" />
          <path
             style="color:#000000;stroke:none;-inkscape-stroke:none"
             d="m 1137.0938,781.84766 c -11.7271,-0.78866 -22.7692,5.42013 -31.4043,14.79101 -17.2704,18.74177 -31.7716,52.34929 -47.1856,113.30469 l -0.5098,2.01562 0.016,2.08008 c 0.9206,115.92034 78.2591,235.11934 106.8261,332.15234 l 0.5196,1.7656 0.9043,1.6035 c 22.6802,40.2826 10.8051,79.7517 -18.0762,110.6329 -28.8813,30.8811 -74.9738,49.5257 -114.8711,42.4746 l -27.418,-4.8457 9.3672,26.2187 c 5.7963,16.2245 20.4959,21.3935 34.7793,25.4551 14.2835,4.0616 31.032,6.461 48.5703,8.8828 34.6117,4.7795 72.5591,10.6446 89.9395,20.6758 113.3658,94.4869 225.3039,218.3515 225.6367,368.9668 l 0.012,5.5078 3.3711,4.3555 c 6.7749,8.7564 13.8819,15.2838 22.6094,18.9629 8.7275,3.679 19.3381,3.3294 27.3301,-0.6172 15.9839,-7.8932 22.8263,-23.364 28.0117,-40.0371 5.1853,-16.6732 7.6979,-35.7918 7.4238,-54.2364 -0.2402,-16.1655 -2.2938,-31.7202 -8.4219,-45.1113 30.7843,-156.0648 -16.9917,-335.0363 -151.9023,-432.1894 l -17.2617,-12.4297 -7.3692,19.9531 c -3.6385,9.8511 -0.1656,11.9712 0.8223,14.209 0.9879,2.2377 1.9961,3.9227 3.1621,5.7851 2.3319,3.7248 5.3057,7.8866 8.9219,12.7852 7.2323,9.7972 16.9436,22.3053 27.1504,35.9219 20.4136,27.2331 42.7991,60.1222 48.9355,77.6015 l 0.1426,0.4043 0.1641,0.3985 c 30.7278,74.5946 49.4794,162.4833 29.1816,239.3007 -21.6369,-49.7722 -46.5108,-98.8085 -79.4004,-143.4336 -16.9467,-40.7276 -53.3221,-59.8341 -83.0762,-76.8183 -30.2717,-17.2798 -52.8459,-31.1161 -58.6171,-60.6973 l -0.3418,-1.7519 -0.7168,-1.6348 c -3.9481,-9.0222 -2.1577,-17.2729 4.3964,-28.6035 6.5542,-11.3307 17.9054,-23.5506 28.5157,-34.5293 5.3051,-5.4894 10.4042,-10.6851 14.8047,-15.877 4.4004,-5.1919 8.5463,-9.8334 10.6777,-18.1543 1.0657,-4.1604 1.2242,-9.9848 -1.2598,-15.2714 -2.4839,-5.2867 -6.9488,-8.8611 -10.9785,-10.8731 -4.6065,-2.3 -9.1608,-3.3798 -14.1406,-3.9609 -2.6217,-10.416 -3.5533,-18.501 -3.3379,-24.2285 0.2839,-7.5488 1.9732,-10.5967 3.9863,-12.7891 4.0263,-4.3848 16.637,-7.6586 36.1231,-7.4805 19.4861,0.1781 43.6261,2.8591 67.5468,1.75 23.9208,-1.109 49.1016,-6.1574 67.3633,-24.8691 l 1.543,-1.5801 1.0625,-1.9336 c 15.9544,-29.0654 55.6317,-75.0658 66.2812,-139.1504 l -29.998,-10.6953 c -20.2274,35.3007 -49.7676,73.2532 -85.2227,98.2988 -35.455,25.0457 -75.5788,37.5996 -122.1406,25.1446 l -1.789,-0.4785 -1.8497,-0.062 c -24.2204,-0.8135 -39.6688,-8.3166 -52.205,-20.418 -12.5362,-12.1014 -21.9429,-29.7356 -29.4707,-50.6465 -14.7414,-40.9489 -21.1947,-92.7255 -40.5625,-133.37696 -5.2681,-30.40986 10.8006,-61.93034 33.0039,-87.0332 8.201,-3.23923 14.6392,-10.04597 17.914,-16.875 4.2414,-8.84441 5.4486,-18.25257 5.4356,-27.9043 -0.026,-19.30344 -4.7772,-39.66462 -16.4707,-55.09179 -5.8468,-7.71359 -14.7261,-14.92424 -26.4531,-15.71289 z m -2.17,32.2832 c -0.5728,-0.0385 0.4439,-0.1793 2.836,2.97656 4.7841,6.31172 9.8832,22.89173 9.9004,35.58789 0.01,6.34808 -1.215,11.70466 -2.2539,13.8711 -0.1542,0.32134 -0.1662,0.41965 -0.2247,0.59179 l -5.2089,0.45117 -4.2461,4.58985 c -18.6585,20.16395 -35.8734,45.91805 -42.5625,74.7793 -1.5399,-10.57293 -2.5262,-21.02496 -2.6993,-31.29493 14.6613,-57.18205 29.8641,-87.18367 39.0196,-97.11914 4.6391,-5.03439 6.0122,-4.39507 5.4394,-4.43359 z m 857.3223,46.19141 c -8.7626,0.0584 -13.759,5.93975 -15.8672,9.27734 -2.1082,3.33758 -2.9914,6.08727 -3.8301,8.99805 -1.6773,5.82155 -2.6417,12.26532 -3.4043,19.6875 -1.5252,14.84435 -1.9152,33.13803 -1.1015,50.22461 0.6968,14.63224 1.7909,27.41068 5.414,38.62304 -27.4675,134.18659 -104.1196,252.52399 -175.9453,371.58789 -8.1136,7.2685 -14.5779,10.9093 -18.5254,12.0879 -4.2,1.254 -5.3502,0.8532 -7.625,-0.418 -4.5495,-2.5423 -12.9561,-15.0016 -19.2558,-33.5195 -6.2998,-18.5179 -11.4631,-41.7546 -16.9102,-63.4434 -5.2544,-20.9218 -10.1175,-40.0813 -19.6504,-55.0351 -22.4797,-48.4569 -22.2808,-80.3342 -17.7324,-114.8125 4.5662,-34.6132 14.7172,-72.1487 9.9414,-123.42385 l -1.8184,-19.53711 -18.8339,5.50977 c -24.9699,7.30605 -35.7918,31.013 -46.1817,52.94529 -10.3898,21.9323 -20.1081,44.9544 -29.7539,56.2637 l -6.0664,7.1113 3.1309,8.8067 c 77.2363,217.2415 98.9149,464.8959 103.0332,702.5761 -1.7682,68.3738 -26.6714,108.325 -51.8321,120.8692 -12.5977,6.2808 -25.4062,6.8737 -39.4316,1.1582 -13.6908,-5.5792 -28.552,-17.9208 -42.0176,-38.752 -34.933,-98.9883 -18.0331,-210.9207 -18.3652,-321.1816 2.294,-47.7246 6.1763,-105.7761 -4.4317,-159.6641 -10.622,-53.9596 -37.5614,-105.1476 -95.121,-131.4785 l -55.9278,-25.584 36.0996,49.793 c 67.0761,92.5191 73.6777,214.1404 73.459,329.6269 v 1.6602 l 0.3339,1.627 c 8.7795,42.7361 2.0023,90.465 -1.2812,139.6464 -3.2835,49.1815 -2.6929,100.7632 25.8887,148.1465 l 1.3457,2.2324 1.9804,1.6973 c 37.3863,32.0335 84.3443,55.8856 120.7852,84.9785 35.9318,28.6865 61.1159,59.9811 62.4141,109.8848 -10.5522,33.7473 -5.9781,63.0357 9.164,84.9199 15.6413,22.6057 39.8475,37.4365 65.5371,50.7168 29.1022,15.0444 60.1642,28.6044 85.8633,44.3262 41.8409,42.1877 74.8042,91.6969 97.3223,129.998 9.9616,16.9437 17.9143,31.6114 23.9121,42.5528 2.9989,5.4707 5.4896,9.987 7.6523,13.6191 1.0814,1.8161 2.0653,3.3993 3.1719,4.9688 1.1066,1.5694 1.5928,2.9924 5.4844,5.7832 1.9458,1.3953 5.802,4.1918 12.7422,2.9863 6.9402,-1.2056 11.5133,-7.4367 12.6953,-10.5449 2.364,-6.2166 1.2577,-7.5563 1.0703,-9.6368 -0.3749,-4.1609 -1.2459,-8.2799 -2.6055,-14.3828 -2.7192,-12.2058 -7.5142,-31.1911 -14.5449,-59.1836 l -0.5039,-2.0019 -0.9883,-1.8106 c -27.8449,-50.9939 -64.3957,-75.0116 -73.9336,-80.7285 -13.2507,-20.7135 -31.9537,-36.2261 -52.6035,-49.1347 -31.4384,-30.829 -68.1745,-57.9118 -110.3516,-75.0645 -10.7919,-75.0229 -33.6796,-164.6958 -15.9843,-229.2344 l 0.3496,-1.2734 0.1367,-1.3125 c 3.7298,-35.4733 7.0955,-60.8849 4.2793,-118.2559 6.4529,-92.1625 17.1492,-188.912 3.1309,-288.9511 l -0.1895,-1.3516 -0.4141,-1.3027 c -15.8465,-49.8701 -2.2374,-90.3975 23.5508,-131.2286 25.7732,-40.8071 64.0224,-79.6649 93.459,-120.8789 l 0.016,-0.023 c 81.4706,-112.8021 140.2991,-243.7311 117.9981,-383.60938 l -0.043,-0.26757 -0.051,-0.26758 c -2.5053,-12.9078 -4.7974,-22.07054 -7.4199,-29.13672 -1.3113,-3.53309 -2.5875,-6.54088 -4.9434,-9.82617 -2.3558,-3.2853 -7.1104,-8.69117 -15.873,-8.63281 z m -316.1348,161.29493 c -1.5634,27.5504 -6.931,51.611 -10.3769,77.7324 -2.6386,20.0014 -3.5974,41.2612 -0.2305,64.8789 -7.2806,-25.4406 -15.305,-50.5499 -23.9394,-75.3633 12.1991,-17.1956 20.1486,-38.1021 28.5976,-55.9375 1.9617,-4.1411 3.9613,-7.7761 5.9492,-11.3105 z m -271.6386,158.3242 c -3.8451,6.0913 -7.4822,12.0459 -10.7442,17.8223 -9.0149,8.4833 -22.8551,12.4518 -40.3105,13.7402 13.035,-5.6988 25.4385,-12.6533 36.9336,-20.7734 4.845,-3.4226 9.5372,-7.0458 14.1211,-10.7891 z m -220.1348,22.4238 c 13.4075,9.1773 29.5594,15.5176 48.3437,17.8887 -3.3705,2.1674 -6.6101,4.6409 -9.5332,7.8242 -7.7957,8.4899 -11.9935,20.3552 -12.4863,33.4571 -0.4928,13.1018 2.1669,27.8914 7.8379,45.8261 l 3.5293,11.1582 11.2656,0.1368 c -2.8478,3.1025 -5.591,6.1037 -9.332,9.9746 -10.7343,11.107 -23.8752,24.5972 -33.2559,40.8144 -9.0428,15.6331 -14.4261,35.8335 -6.8066,55.5625 1.4346,6.8903 3.547,13.2008 6.1855,19.041 -25.6417,-10.2906 -56.7219,-13.6065 -84.75,-17.414 25.238,-9.4012 48.3137,-24.9173 66.4786,-44.3399 35.4944,-37.9522 51.9855,-94.2904 23.5918,-146.7285 -3.2582,-10.9367 -7.0173,-22.0233 -11.0684,-33.2012 z m 494.7246,12.7637 c 2.2136,5.7018 4.5944,11.49 7.3906,17.4863 l 0.5391,1.1563 0.7148,1.0586 c 4.7128,6.9789 10.8282,25.4675 16.1055,46.4804 5.2773,21.013 10.4717,44.8523 17.6602,65.9825 7.1884,21.1302 15.4028,40.8925 34.1054,51.3437 6.3158,3.5293 13.9159,5.0892 21.6192,4.8145 -25.3722,42.9158 -40.186,92.6828 -22.9707,148.8125 13.1406,94.8574 2.9547,189.0549 -3.5332,282.0176 l -0.068,0.9687 0.049,0.9707 c 2.829,56.1708 -0.2491,77.8941 -4.0136,113.5566 -7.4884,28.2792 -8.8152,58.4782 -6.9844,88.8946 -13.8148,-26.1689 -34.2943,-47.4301 -56.7422,-65.3516 -9.9825,-7.9696 -20.3835,-15.4389 -30.8848,-22.6035 7.5155,-1.2931 14.8687,-3.5927 21.8203,-7.0586 40.8975,-20.39 67.8654,-73.3521 69.7559,-149.2969 l 0.01,-0.3418 -0.01,-0.3398 c -3.3147,-192.2134 -17.9347,-391.9199 -64.5645,-578.5508 z m -330.6504,98.1934 c 0.066,0.1503 0.9307,0.524 1.2793,2.0976 -0.059,-0.093 -0.2356,-0.3275 -0.291,-0.416 -0.7152,-1.1424 -1.1135,-1.9652 -0.9883,-1.6816 z m -64.5078,208.4922 c 19.4384,12.3661 35.4791,26.0133 43.7852,46.8847 -14.0009,-16.2581 -28.6734,-31.8783 -43.7852,-46.8847 z m 181.5859,193.4668 c -1.111,6.9484 -2.2219,13.8985 -3.666,20.7558 l -1.2715,6.0391 3.0743,5.3535 c 3.6065,6.2791 6.7414,19.9781 6.9648,35.0078 0.2234,15.0297 -2.0366,31.5092 -5.9668,44.1465 -3.9302,12.6373 -10.5478,20.1915 -11.4414,20.6328 -0.4468,0.2206 0.8711,0.3644 -0.4336,-0.1855 -0.9816,-0.4139 -3.3007,-1.896 -6.3555,-5.1446 -0.4375,-21.9719 -2.9611,-43.3152 -7.2988,-64.0332 l 13.1992,-28 c 5.3338,-11.3144 9.6439,-22.8705 13.1953,-34.5722 z m 286.8536,417.3007 c 2.465,13.7224 4.8943,27.1514 7.0683,39.9727 -6.8859,-10.8774 -10.0486,-22.9299 -7.0683,-39.9727 z m 291.7187,328.1055 c 0.3742,0.4053 0.3305,0.4958 0.1641,0.2598 -0.026,-0.037 -0.1319,-0.2126 -0.1641,-0.2598 z m -26.666,9.6035 c 0.012,0.091 0.1476,0.7428 0.1523,0.7949 0.017,0.1884 -0.1951,0.041 -0.1523,-0.7949 z"
             id="path1740" />
        </g>
        <g
           id="path22237">
          <path
             style="color:#000000;stroke:none;-inkscape-stroke:none"
             d="m 1560,2235 c 5.0926,-42.5638 95.5476,-152.6416 68.8671,-44.5145 -7.6722,28.3762 -37.6615,57.1574 -68.8671,44.5145 z"
             id="path1746" />
          <path
             style="color:#000000;stroke:none;-inkscape-stroke:none"
             d="m 1625.5313,2128.1465 c -4.9019,0.064 -8.8156,1.4214 -12.2618,3.039 -6.8924,3.2354 -12.4588,7.8789 -18.1875,13.4375 -11.4573,11.1173 -22.8623,26.2363 -32.289,41.9297 -9.4267,15.6935 -17.0109,31.0918 -18.8575,46.5254 l -1.4687,12.2754 11.459,4.6406 c 21.2343,8.6031 43.3052,2.7405 58.9687,-8.873 15.6636,-11.6135 26.7273,-28.4274 31.5899,-46.4121 l 0.047,-0.1738 0.043,-0.1739 c 3.5133,-14.2381 5.2906,-25.2509 5.3809,-34.5976 0.09,-9.3468 -0.6946,-18.6128 -9.2031,-26.0821 -4.2543,-3.7346 -10.3189,-5.599 -15.2207,-5.5351 z m -8.8555,40.6973 c -0.6816,4.7795 -1.7308,10.4626 -3.4668,17.5312 -2.8342,10.3646 -10.5671,22.067 -19.586,28.7539 -4.1478,3.0754 -8.1934,5.0685 -12.3105,6.084 2.4355,-5.6092 5.5195,-11.8448 9.2168,-18 7.8452,-13.0606 17.8536,-26.0898 26.1465,-34.3691 z"
             id="path1748" />
        </g>
        <g
           id="path22239">
          <path
             style="color:#000000;stroke:none;-inkscape-stroke:none"
             d="m 1506,2139 c -69.4622,28.0316 -71.6868,-123.8193 -7.995,-36.0119 32.4614,14.7875 65.051,69.0591 7.995,36.0119 z"
             id="path1754" />
          <path
             style="color:#000000;stroke:none;-inkscape-stroke:none"
             d="m 1463.3105,2059.1699 c -1.2213,0.064 -2.4559,0.2113 -3.7031,0.4473 -9.9778,1.8882 -17.1161,9.8639 -20.2558,17.2148 -3.1398,7.3509 -3.8559,14.8981 -3.4356,22.625 0.8407,15.454 6.3992,32.1829 19.1719,44.8711 11.2369,11.1626 29.6938,17.0494 49.0137,12.2383 11.5566,6.6516 19.7232,10.6287 31.6933,8.8262 7.0331,-1.0591 16.0294,-9.3217 17.2637,-16.6934 1.2343,-7.3716 -0.7694,-12.0377 -2.7305,-16.4004 -7.3441,-16.3375 -22.4238,-32.1464 -41.6797,-42.0195 -7.625,-10.1029 -14.6819,-17.6048 -21.8964,-22.8711 -6.9923,-5.104 -14.8917,-8.6874 -23.4415,-8.2383 z m 5.0606,35.0156 c 3.8316,2.947 9.5629,8.688 16.5371,18.3028 l 2.5059,3.4531 3.8847,1.7695 c 2.9002,1.3212 6.0975,3.4831 9.2989,6.0235 l -0.6524,0.2636 c -12.637,5.0997 -16.8625,2.531 -22.0527,-2.625 -5.1903,-5.1559 -9.2312,-15.6449 -9.668,-23.6738 -0.073,-1.3424 0.057,-2.4006 0.1465,-3.5137 z"
             id="path1756" />
        </g>
        <g
           id="path22241">
          <path
             style="color:#000000;stroke:none;-inkscape-stroke:none"
             d="m 1225,1953 c 115.2434,-10.1473 36.0272,-149.1917 -10.5972,-195.7219 70.7057,-10.5104 187.7258,88.61 111.9255,159.6291 -15.21,22.8358 -104.9574,60.6231 -101.3283,36.0928 z"
             id="path1762" />
          <path
             style="color:#000000;stroke:none;-inkscape-stroke:none"
             d="m 1228.7188,1740.2578 c -5.6208,-0.1258 -11.2012,0.2009 -16.6954,1.0176 l -31.8183,4.7305 22.7695,22.7246 c 20.8516,20.8094 51.7587,66.8138 61.8008,104.2441 5.021,18.7152 4.6336,34.348 -0.5508,44.1289 -5.1843,9.781 -15.2108,17.5418 -40.6445,19.7813 l -12.7168,1.1191 -1.8672,12.6289 c -1.1161,7.5438 3.4949,18.5838 10.4258,22.7031 6.9309,4.1194 12.9071,4.0547 18.6328,3.7383 11.4513,-0.6327 23.5188,-4.2951 36.3789,-9.2676 12.8601,-4.9724 26.0652,-11.3876 37.5293,-18.3457 10.6249,-6.4487 19.5705,-12.6458 26.1973,-21.5449 21.2504,-20.3158 30.474,-45.1017 28.7343,-68.5859 -1.7619,-23.785 -13.4698,-45.4453 -29.4726,-63.5313 -28.0049,-31.6505 -69.3576,-54.6604 -108.7031,-55.541 z m 24.125,37.8438 c 21.6335,7.2715 44.6854,21.4397 60.3457,39.1386 12.6153,14.2577 20.3674,30.0347 21.4375,44.4805 1.07,14.4458 -3.2952,28.33 -19.3594,43.3809 l -1.3672,1.2793 -1.0371,1.5586 c -0.7945,1.1927 -7.0008,6.8754 -15.2539,12.2441 5.2582,-17.5993 3.4473,-36.8474 -1.5821,-55.5938 -8.2532,-30.7628 -25.1936,-61.6112 -43.1835,-86.4882 z"
             id="path1764" />
        </g>
        <g
           id="path22243">
          <path
             style="color:#000000;stroke:none;-inkscape-stroke:none"
             d="m 1156,1884 c 12.6024,-60.359 60.7695,-111.623 69.2453,-23.1489 -2.1954,37.8141 -44.6973,47.3023 -69.2453,23.1489 z"
             id="path1770" />
          <path
             style="color:#000000;stroke:none;-inkscape-stroke:none"
             d="m 1204.125,1797.2461 c -7.8857,-0.5822 -14.9226,2.0933 -20.6152,5.7012 -22.7706,14.4313 -36.391,44.4269 -43.3477,77.7461 l -1.8047,8.6445 6.2949,6.1953 c 16.3563,16.0933 39.0731,21.4475 58.8887,15.6602 19.8156,-5.7874 36.4122,-24.5446 37.8555,-49.4043 l 0.072,-1.2422 -0.1192,-1.2383 c -2.2718,-23.7141 -6.3691,-39.7659 -16.5957,-51.3574 -5.1133,-5.7958 -12.7432,-10.1229 -20.6289,-10.7051 z m -3.1504,32.957 c 1.85,2.7568 6.069,12.7206 7.9824,30.916 -1.0481,12.0032 -6.6395,16.7214 -14.4882,19.0137 -5.9614,1.7411 -13.3653,1.1103 -20.125,-2.5215 7.0514,-23.2557 20.6981,-43.6636 26.4863,-47.332 0.083,-0.053 0.069,-0.03 0.1445,-0.076 z"
             id="path1772" />
        </g>
      </g>
    </g>
  </g>
  <g
     id="layer2"
     style="display:none;opacity:0.258065">
    <path
       style="color:#000000;opacity:0.903226;fill:#ff6600;stroke-width:2.08492;stroke-linejoin:round;-inkscape-stroke:none;paint-order:markers fill stroke"
       d="M -179.36411,0.09460067 H 135.5563 V 319.42566 h -314.92041 z"
       transform="translate(151.57701,-26.558502)"
       id="rect2043" />
  </g>
  <g
     id="layer3"
     style="display:inline">
    <g
       id="g5294"
       transform="translate(10.090872)">
      <g
         id="g2170"
         style="display:inline;fill:#000000;fill-opacity:1"
         transform="translate(152.45914,-38.026191)">
        <g
           transform="matrix(0.15290355,0,0,-0.11550011,-248.78808,377.49944)"
           style="fill:#000000;fill-opacity:1;stroke:#000000;stroke-width:32.357"
           id="g2168">
          <g
             id="g2130"
             style="fill:#000000;fill-opacity:1">
            <path
               style="color:#000000;fill:#000000;fill-opacity:1;stroke:none;-inkscape-stroke:none"
               d="m 1560,2979 c -82.7101,-156.7919 -185.4139,-321.6878 -167.0747,-506.6189 29.6914,-62.7752 56.8523,-135.4251 67.7346,-200.6733 -60.8308,-38.5972 -167.3455,-40.3628 -164.7971,-135.9919 -35.6296,14.1417 -7.0537,-64.0488 -63.451,-60.4582 -104.0117,-14.3688 -186.4335,-81.7176 -264.59195,-146.5922 -71.95344,-30.9276 -133.29938,-99.3438 -72.73886,-174.1403 36.62066,-82.2305 -25.21074,-187.7947 44.43706,-261.3979 65.12025,-63.3927 55.88977,32.2322 9.83315,57.3686 -48.16409,62.148 44.29069,151.9583 -22.37694,211.9894 -101.35715,49.0443 32.67226,140.7358 97.93504,148.3029 80.5464,78.2517 176.7292,137.7401 284.1038,175.6317 23.3738,12.9671 100.8648,65.0321 37.1109,75.8392 17.4913,97.0656 151.6914,73.215 204.98,141.9714 77.1422,-9.0474 174.0309,-39.3412 209.0746,57.608 105.1487,135.7044 212.8822,286.7924 220.6761,464.6947 66.869,9.1238 22.4123,-116.7377 53.9512,-158.257 14.0066,-58.4414 4.035,-221.1762 -2.0255,-195.9895 58.6883,98.1094 5.9143,212.832 11.9197,318.3344 -4.1154,40.5682 -18.409,166.1691 -66.6115,132.0661 -42.5838,-164.3695 -103.5861,-323.9458 -178.4248,-475.8224 -43.9155,-67.7831 -104.816,54.9092 -94.002,25.0513 4.1087,-126.9792 -89.8932,92.6861 -49.1835,-18.8585 -64.5907,-26.4775 -76.4413,114.8532 -76.1503,166.1042 -11.6159,119.6556 -7.5758,240.2664 -20.328,359.8382 z m 24.3339,-530.8643 c -33.134,-37.8217 -67.3782,32.3132 -45.4788,-5.2014 29.2736,-55.7765 -52.3646,-10.7154 -38.7229,-20.8637 127.6536,-109.4677 -71.3769,-43.952 -60.9476,21.3729 -15.53,95.7832 -21.105,195.3411 11.9992,288.4527 22.8863,48.1144 38.5755,143.1881 90.2393,149.6179 18.8083,-64.6787 -1.047,-136.2104 14.0332,-204.4273 2.2938,-40.4248 24.567,-188.6873 28.8776,-228.9511 z M 1543,2349 c -30.2024,-40.3751 -57.8655,30.3912 0,0 z"
               id="path2126" />
            <path
               style="color:#000000;fill:#000000;fill-opacity:1;stroke:none;-inkscape-stroke:none"
               d="m 975.94922,1455.6621 c -16.91093,-0.9893 -30.11692,8.7401 -47.7168,25.8731 l -0.23828,0.2304 -0.22656,0.2422 c -39.12069,41.3424 -41.23325,92.5239 -39.01367,139.3496 2.18955,46.1923 7.25384,89.7026 -7.85938,125.1172 -31.81223,40.7678 -32.30999,85.0041 -13.29687,119.3984 18.94755,34.2758 53.96265,60.0062 91.49609,76.5684 77.78535,64.5571 162.19355,133.7963 271.10355,148.8418 l 1.6152,0.2246 1.627,-0.1035 c 10.47,-0.6666 12.8017,1.3689 15.5195,4.459 2.7177,3.0901 5.2593,9.5044 7.2773,17.5273 2.0181,8.023 2.8379,16.9543 8.7871,26.7422 2.9212,4.8061 8.2911,10.1503 15.4082,12.3086 2.1175,19.3312 8.6938,35.8212 18.5723,49.0977 12.6895,17.0544 29.952,28.7362 48.166,37.9843 32.4304,16.4665 68.8082,26.4481 95.3985,40.4786 -11.5868,60.162 -36.6815,127.1369 -64.2676,185.4609 l -1.1992,2.5332 -0.2754,2.7891 c -19.0178,191.7733 86.5499,359.7201 168.8652,515.7636 l 24.7656,46.9512 5.6309,-52.7852 c 12.9121,-121.0707 8.8637,-241.7345 20.3437,-359.9902 l 0.08,-0.8242 -0.01,-0.8301 c -0.138,-24.2941 2.8984,-71.9431 13.1211,-107.6562 5.1113,-17.8566 12.3481,-32.4942 19.1796,-39.418 2.0521,-2.0798 3.7941,-3.6237 5.5332,-4.7285 -1.148,3.459 -2.2199,6.7381 -2.8828,9.1816 -0.8288,3.0554 -2.341,3.4564 -1.2148,11.2129 0.2815,1.9391 0.7225,5.0475 4.0644,8.8047 3.342,3.7572 10.3475,5.9171 14.4473,5.3828 8.1996,-1.0685 8.7718,-3.7695 10.0586,-5.0137 5.147,-4.9767 6.404,-8.0616 9.8984,-13.3242 3.4945,-5.2625 7.5782,-11.4897 11.8067,-17.4199 2.9531,-4.1415 5.902,-7.8703 8.6933,-11.1563 0.2866,3.9409 0.4245,8.8394 0.2911,14.6993 -0.3165,0.9905 -0.6941,1.7756 -0.9688,3.2929 -0.272,1.5025 -2.0518,2.9051 1.0645,10.086 1.5581,3.5904 7.1175,8.8265 12.4941,9.6601 5.3766,0.8337 8.3224,-0.746 10.0508,-1.6269 6.9133,-3.5237 5.6188,-4.3618 6.7558,-5.7031 1.1371,-1.3414 2.2212,-2.7268 3.4668,-4.3223 4.9824,-6.3822 12.447,-16.0465 20.9395,-24.1465 8.4925,-8.1 17.8842,-13.7029 23.6836,-14.4473 5.6986,-0.7314 10.1489,-0.273 18.6875,12.6836 74.1483,150.6462 134.573,308.8261 176.7519,471.6328 l 1.4844,5.7305 4.832,3.4199 c 8.0904,5.7239 17.2948,9.2005 26.6836,8.7325 9.3889,-0.4681 17.7411,-4.959 23.8457,-10.6387 12.2093,-11.3594 18.6479,-27.1547 24.0899,-44.4863 10.884,-34.6634 15.3553,-76.7608 17.4336,-97.2481 l 0.1289,-1.2734 -0.074,-1.2793 c -2.831,-49.7345 8.5246,-104.0903 13.7519,-159.5 4.8723,-51.646 4.0485,-105.1385 -21.8867,-155.3047 -0.4845,-3.162 -1.1117,-6.1716 -2.4277,-9.6055 -0.558,-1.4558 -1.0066,-3.1251 -3.5508,-6.0312 -1.2721,-1.4531 -3.2675,-3.4238 -6.8926,-4.7578 -3.6251,-1.3341 -8.8923,-1.1632 -12.4141,0.3886 -7.0434,3.1037 -7.8727,6.8526 -8.7851,8.8477 -0.9124,1.9951 -1.2609,3.3723 -1.5957,4.7637 l -1.5449,6.4218 3.3906,5.668 c 0.8884,1.4851 1.6779,2.9865 2.5117,4.4805 0.089,0.6 0.082,0.358 0.1602,0.9882 1.4559,11.7237 2.8417,31.3233 3.58,53.4004 1.4343,42.8847 -0.019,96.5424 -5.6054,122.5704 -9.327,14.2975 -11.9086,31.3017 -13.2032,48.5625 -1.402,18.6944 -0.8597,38.2058 -1.4296,55.2617 -0.57,17.0558 -2.8201,31.5781 -6.2442,38.2519 -0.9753,1.901 -1.8634,3.0524 -2.7617,3.9258 -14.0547,-175.3697 -119.953,-323.0657 -221.5469,-454.2793 -19.7136,-51.5372 -60.1251,-72.8892 -101.4902,-76.582 -39.0104,-3.4826 -79.7106,5.0362 -115.1777,9.8008 -31.4679,-34.3617 -78.5037,-44.9223 -117.1778,-58.3907 -20.6527,-7.1924 -39.081,-15.0402 -52.4707,-25.5742 -10.0222,-7.8847 -17.522,-16.8662 -22.2187,-29.5215 2.297,-0.981 4.5195,-2.0597 6.6015,-3.373 6.654,-4.1971 12.334,-11.2837 13.9414,-19.2324 3.2149,-15.8975 -5.582,-27.0495 -14.0742,-36.5274 -16.9844,-18.9558 -42.3427,-34.8198 -55.4297,-42.0801 l -1.1855,-0.6582 -1.2793,-0.4511 c -105.2226,-37.1322 -199.3443,-95.3588 -278.2129,-171.9805 l -3.9473,-3.832 -5.4629,-0.6348 c -26.4636,-3.0684 -76.02398,-27.2237 -101.6816,-53.7695 -12.82882,-13.2729 -18.96356,-26.2417 -18.58985,-34.9707 0.37372,-8.7291 5.21785,-18.1365 27.51953,-28.9278 l 2.07032,-1.0019 1.70898,-1.5391 c 19.53939,-17.5943 28.42459,-39.3815 30.14649,-60.4121 1.72189,-21.0306 -2.63701,-41.3108 -7.08594,-60.4707 -4.44894,-19.1599 -9.05196,-37.3082 -9.79102,-52.9902 -0.69517,-14.7509 1.51547,-26.6641 9.55274,-38.0684 13.26703,-8.2628 23.07971,-20.2432 29.95898,-32.7617 7.48177,-13.615 11.77577,-27.7627 11.72267,-41.2559 -0.027,-6.7465 -1.0418,-13.6331 -5.16603,-20.2832 -4.12427,-6.65 -12.73399,-12.1088 -21.18945,-12.6035 z m -6.16016,34.7012 c -0.37794,5.8695 -2.8289,15.2399 -7.56445,23.8574 -5.16735,9.4033 -12.69578,17.7477 -20.62305,22.0742 l -2.96679,1.6192 -2.07227,2.6718 c -7.27095,9.382 -11.92047,19.5072 -14.66797,29.8204 2.84124,-24.2746 10.65174,-46.2177 29.11524,-65.8633 8.26518,-8.0028 14.72648,-12.0236 18.77929,-14.1797 z m -48.48047,133.3633 c 2.17932,12.8049 5.25885,25.2686 8.03321,37.2168 4.31078,18.5649 7.55565,35.877 6.35742,50.5117 -1.16245,14.1977 -5.56359,25.8726 -18.41602,37.8984 -1.19484,0.6136 -2.34099,1.2528 -3.49023,1.8906 15.27576,-42.3437 9.67908,-86.786 7.51562,-127.5175 z m 2.42188,258.9707 c 28.70048,22.1801 63.77889,38.3027 93.55863,43.1484 49.1938,47.1887 104.0273,87.5864 163.5136,120.5781 -74.6656,-25.1767 -139.292,-77.6171 -202.65036,-130.207 l -1.79687,-1.4922 -2.14649,-0.9219 c -18.52222,-7.9613 -36.02436,-18.7627 -50.47851,-31.1054 z m 360.66603,211.9043 c 5.837,2.2254 11.7097,4.3812 17.6133,6.4785 10.6673,6.0313 34.761,22.119 46.1816,34.8652 2.8604,3.1924 4.3155,5.9218 5.1426,7.586 -1.8977,0.8495 -4.8505,1.919 -9.9141,2.7773 l -16.1172,2.7324 2.8985,16.0879 c 2.2974,12.7491 6.6296,23.9665 12.3242,33.8477 -6.9504,-5.0447 -12.9363,-10.5365 -17.5625,-16.7539 -8.4662,-11.3784 -13.4849,-25.1704 -12.9277,-46.0762 l 0.6543,-24.5156 -20.9727,8.3242 c -0.8791,-2.6125 -2.2031,-6.9116 -4.1016,-14.459 -0.8498,-3.3785 -1.925,-7.0965 -3.2187,-10.8945 z m 192.0371,180.7148 c 25.5505,9.6234 47.9081,20.7931 61.8828,38.8242 l 5.5977,7.2227 9.0742,-1.0645 c 39.8676,-4.6757 82.5798,-13.9714 117.0019,-10.8984 34.4222,3.073 59.2544,14.4524 74.9727,57.9375 l 0.8672,2.3965 1.5605,2.0136 c 10.0572,12.9797 20.0534,26.1953 30.0254,39.4239 -4.8837,-1.1105 -9.786,-1.4471 -14.5469,-0.836 -17.6327,2.2634 -31.0261,12.7571 -41.8964,23.125 -0.7655,0.7301 -1.4229,1.4711 -2.1641,2.2071 -0.146,-0.4874 -0.2269,-1.0309 -0.3848,-1.5098 -1.6296,-4.9439 -4.0194,-9.8527 -8.7871,-13.9043 -4.7676,-4.0516 -12.1325,-5.944 -17.75,-5.209 -11.235,1.4701 -16.6933,7.4686 -22.3008,13.2207 -2.8683,2.9423 -5.5925,6.1293 -8.2089,9.4219 -20.6188,-7.8732 -42.3212,-1.8778 -55.6036,11.584 -2.2351,2.2653 -4.2628,4.7174 -6.2031,7.25 0.1983,-1.711 0.6926,-5.197 0.8496,-6.6641 l 0.7559,-7.0488 -4.6719,-5.334 c -10.1771,-11.617 -23.6034,-17.2667 -35.4922,-16.9941 -0.5802,-4.8321 -2.2018,-9.7027 -5.6289,-13.5977 -3.0061,-3.4166 -6.5353,-5.4326 -10.0332,-6.7031 0.3263,-0.4013 0.7421,-0.8422 1.0567,-1.2383 7.8322,-9.8637 13.547,-17.6628 12.7324,-29.9687 -0.191,-2.8843 -1.1901,-5.9479 -2.6621,-8.7774 l 10.8437,-5.6933 -11.3652,-15.1934 c -9.618,-12.8575 -22.4646,-20.2222 -35.1426,-19.1934 -12.678,1.0288 -21.9638,9.1647 -25.9062,19.25 -1.9713,5.0427 -2.8228,11.1599 -0.5938,17.6211 0.046,0.1322 0.1426,0.2512 0.1914,0.3828 -14.7383,6.613 -30.0038,16.0505 -43.041,27.7325 -2.5613,2.295 -5.0353,4.7451 -7.4414,7.2714 14.2963,-39.0122 25.9762,-78.9477 32.4121,-117.0566 z m 40.9707,107.7754 c -5.9481,6.7593 -14.8409,15.5049 -27.1992,26.1445 -1.0604,0.614 -1.6853,0.076 -5.0801,5.2364 -0.9194,1.3976 -2.6948,3.5411 -2.7227,8.957 -0.028,5.4158 5.202,12.8005 9.1817,14.7285 7.9593,3.8559 8.9729,1.5998 10.2812,1.3711 5.2333,-0.9146 5.573,-1.5949 8.2246,-2.5625 4.6153,-1.6841 10.7074,-3.7452 16.0196,-5.0488 -0.5027,1.1151 -0.802,1.9758 -1.4864,3.291 -2.4383,4.1618 -4.1817,7.0029 -5.1679,8.5762 -0.5179,0.8262 -0.7834,1.2254 -1.2188,1.9453 -0.1088,0.1799 -0.2252,0.367 -0.4765,0.83 -0.1257,0.2316 -0.283,0.5112 -0.5625,1.1329 -0.2795,0.6216 -0.9081,0.7755 -1.3457,4.9941 -0.2189,2.1093 4.6064,13.0673 4.6074,13.0684 10e-4,10e-4 13.8339,4.8617 16.5215,3.9824 5.3751,-1.7587 4.9991,-2.6555 5.584,-3.1621 1.1697,-1.0133 1.2324,-1.1806 1.4335,-1.4004 1.6093,-1.7586 1.5003,-1.7552 2.6622,-2.9883 1.1618,-1.2331 2.7338,-2.773 4.5136,-4.2227 3.5597,-2.8992 7.7917,-4.9719 10.4317,-5.207 1.6868,-0.1502 3.2808,-0.1194 5.6406,1.4883 -2.5702,21.8257 -8.2761,62.8972 -14.1387,106.1309 -6.3,46.4599 -12.3062,92.0156 -13.6894,114.4765 -14.225,65.9808 -0.03,130.1012 -9.6543,184.8985 -2.9127,-2.1153 -5.799,-4.679 -8.7539,-8.1133 -7.3659,-8.561 -14.3752,-21.2329 -20.6504,-35.7285 -12.377,-28.5904 -21.7161,-63.4498 -34.0586,-89.8204 -31.5416,-89.0349 -26.4689,-185.5541 -11.1465,-280.0566 l 0.416,-2.5703 -0.4101,-2.5703 c -1.278,-8.0045 4.7338,-19.8989 17.8945,-31.6914 12.7641,-11.4372 30.6449,-21.2968 44.3496,-26.1094 z m -7.0273,51.5059 c -0.7698,0.8545 -0.8865,0.6752 -0.5879,0.4531 l 0.4492,-0.334 z m -87.9727,11.7675 c -6.5787,41.6516 -11.3072,84.2532 -11.6855,127.002 -4.0537,-31.78 -4.9443,-64.0382 -1.8946,-96.8438 4.619,-9.8323 9.1373,-19.9256 13.5801,-30.1582 z m 272.1875,17.586 c -0.087,0.106 -0.3064,0.3897 -0.375,0.4707 -0.3156,0.3723 -0.5812,0.2518 0.375,-0.4707 z m 152.9258,46.2578 c 60.8413,93.574 108.3741,193.9678 116.373,304.0273 -32.1191,-103.8338 -71.2695,-205.4198 -116.373,-304.0273 z m 176.6699,314.1113 c -2.6839,18.2877 -6.3776,38.5526 -11.6953,55.4883 -4.6712,14.8767 -11.1035,26.6232 -15.2598,30.4902 -2.0781,1.9335 -2.7808,1.9781 -3.416,2.0098 -0.3086,0.015 -0.9206,-0.01 -1.8906,-0.3418 -6.1743,-23.5398 -12.7947,-46.9535 -19.7031,-70.2832 l 6.4453,0.8789 c 10.708,1.461 20.9853,0.3368 29.7031,-4.0664 6.6546,-3.3611 11.9065,-8.4685 15.8164,-14.1758 z m -489.7656,72.334 c 1.6463,0.3542 3.2973,0.7017 5.0039,0.9141 l 10.6484,1.3261 c -0.4662,8.1143 -0.9784,16.2198 -1.5429,24.3145 -4.739,-8.8265 -9.3745,-17.6919 -14.1094,-26.5547 z"
               id="path2128" />
          </g>
          <g
             id="g2136"
             style="fill:#000000;fill-opacity:1">
            <path
               style="color:#000000;fill:#000000;fill-opacity:1;stroke:none;-inkscape-stroke:none"
               d="M 1984.143,2641.2025 C 1959.0288,2519.1678 1872.2547,2434.0184 1825,2321 c 119.7252,20.4843 115.1826,164.0785 142.4896,254.6985 4.6415,19.173 26.448,107.0045 16.6534,65.504 z"
               id="path2132" />
            <path
               style="color:#000000;fill:#000000;fill-opacity:1;stroke:none;-inkscape-stroke:none"
               d="m 1798.7207,2300.0898 11.3535,27.1504 c 44.4909,106.4083 119.1598,185.7215 150.25,286.8418 2.0072,8.0897 3.3885,13.7831 5.2129,21.0567 2.41,9.6085 4.294,17.0581 5.1856,20.3105 0.1114,0.4066 0.2034,0.7376 0.3378,1.1817 0.067,0.222 0.1251,0.4312 0.3223,0.9804 0.099,0.2746 0.1876,0.5776 0.6035,1.4629 0.208,0.4427 0.4258,0.9917 1.2891,2.2559 0.8633,1.2642 11.5553,6.9588 11.5566,6.959 0,1e-4 16.9243,-9.7397 17.5391,-12.2891 0.6148,-2.5494 0.457,-3.2862 0.4512,-3.9473 -0.012,-1.3221 -0.094,-1.6407 -0.1368,-1.9746 -0.086,-0.6677 -0.1323,-0.8791 -0.1777,-1.1211 -0.091,-0.4839 -0.1668,-0.8367 -0.2656,-1.2929 -0.3954,-1.825 -1.1216,-4.958 -2.3535,-10.1778 l 0.1015,0.4551 c -2.3972,-11.6488 -5.461,-22.8487 -8.8066,-33.8555 -3.0504,-12.3063 -6.6393,-26.7017 -7.9688,-32.1933 l -0.1054,-0.4336 -0.1289,-0.4277 c -12.9009,-42.8124 -18.6241,-101.8243 -36.791,-154.2774 -18.167,-52.4531 -52.3709,-100.3935 -118.461,-111.7012 z m 56.416,47.2618 c 31.2512,15.458 47.9678,43.8756 60.4766,79.9922 4.598,13.2759 8.2678,27.4981 11.6074,42.041 -24.7195,-40.7782 -50.8864,-80.1267 -72.084,-122.0332 z"
               id="path2134" />
          </g>
          <g
             id="g2142"
             style="fill:#000000;fill-opacity:1">
            <path
               style="color:#000000;fill:#000000;fill-opacity:1;stroke:none;-inkscape-stroke:none"
               d="m 1945.6198,2321.8897 c -53.5413,-90.4908 -247.2712,-84.6949 -204.1925,-211.5023 -1.388,-113.398 -118.5304,-148.7167 -188.9394,-209.0448 -51.8988,-86.0393 -3.4954,-189.6295 -22.6137,-282.6925 0.2198,-116.0725 -5.8475,-241.6474 -76.5399,-339.1546 104.5177,47.8121 94.7174,179.9452 90.1132,275.8536 0.395,109.2509 -17.7649,224.2138 19.8553,328.907 60.3267,95.7025 160.551,54.1941 164.1478,-90.2983 -4.1143,-238.5852 -25.7184,-488.007 -103.9758,-708.1206 25.2668,-29.6243 37.5191,-95.21178 68.1708,-104.1803 9.0228,96.8727 -38.5051,141.2419 9.4701,244.12 29.9215,44.3092 28.8973,218.009 108.9301,143.4851 72.6894,-120.6099 152.4433,-242.2509 180.1565,-382.93477 -13.1132,-30.38327 -4.9247,-174.87522 14.3974,-75.32667 21.3563,133.95274 -34.9876,260.62394 -115.1525,371.61164 -56.6561,79.357 -154.2971,156.3847 -119.3133,266.4808 13.6956,97.7362 3.1767,193.4918 -3.3015,286.3146 2.8963,57.5085 -0.3904,80.9589 -4.1753,116.9558 -20.3474,74.2114 7.1185,170.2839 16.9388,244.9685 207.0194,75.4971 293.5965,425.2193 237.3372,201.2239 -29.8836,-54.7276 -71.3133,-76.6661 -71.3133,-76.6661 z M 1108,989 c 36.6236,73.7991 26.9342,212.3676 137.3596,216.0764 103.1592,27.5945 183.3988,-57.4104 225.5827,-131.0293 -9.7735,58.8131 -46.8792,101.908 -64.5043,134.017 -55.9306,57.3088 -215.0603,-40.1429 -172.5114,94.4201 76.1297,0.928 -60.1983,59.3627 -34.4291,118.2512 14.2969,73.28 115.1639,70.3123 143.4239,142.4141 40.6188,54.657 69.275,116.9744 94.7401,179.8062 42.8706,-90.9415 21.3742,-200.5258 -15.4142,-289.8329 -15.5778,-44.3731 -91.408,-129.0368 -89.0805,-135.3383 130.2807,93.819 176.4728,269.7123 144.4885,421.5868 23.9232,41.6517 -1.7123,167.5218 -47.2891,108.6141 -0.3515,-159.0838 -117.6193,-286.7165 -232.6816,-382.3972 -45.4093,-27.3845 -157.1575,-18.9132 -167.1879,-46.9892 93.0244,16.4404 202.3614,-83.7275 149.8597,-176.9761 -29.6999,-100.8809 -105.3061,-219.2144 -106.1678,-327.71308 60.5121,-239.29769 118.9217,-34.66478 73.4117,-30.72159 C 1121.611,911.27452 1100.2623,949.43196 1108,989 Z"
               id="path2138" />
            <path
               style="color:#000000;fill:#000000;fill-opacity:1;stroke:none;-inkscape-stroke:none"
               d="m 1137.0938,781.84766 c -11.7271,-0.78866 -22.7692,5.42013 -31.4043,14.79101 -17.2704,18.74177 -31.7716,52.34929 -47.1856,113.30469 l -0.5098,2.01562 0.016,2.08008 c 0.9206,115.92034 78.2591,235.11934 106.8261,332.15234 l 0.5196,1.7656 0.9043,1.6035 c 22.6802,40.2826 10.8051,79.7517 -18.0762,110.6329 -28.8813,30.8811 -74.9738,49.5257 -114.8711,42.4746 l -27.418,-4.8457 9.3672,26.2187 c 5.7963,16.2245 20.4959,21.3935 34.7793,25.4551 14.2835,4.0616 31.032,6.461 48.5703,8.8828 34.6117,4.7795 72.5591,10.6446 89.9395,20.6758 113.3658,94.4869 225.3039,218.3515 225.6367,368.9668 l 0.012,5.5078 3.3711,4.3555 c 6.7749,8.7564 13.8819,15.2838 22.6094,18.9629 8.7275,3.679 19.3381,3.3294 27.3301,-0.6172 15.9839,-7.8932 22.8263,-23.364 28.0117,-40.0371 5.1853,-16.6732 7.6979,-35.7918 7.4238,-54.2364 -0.2402,-16.1655 -2.2938,-31.7202 -8.4219,-45.1113 30.7843,-156.0648 -16.9917,-335.0363 -151.9023,-432.1894 l -17.2617,-12.4297 -7.3692,19.9531 c -3.6385,9.8511 -0.1656,11.9712 0.8223,14.209 0.9879,2.2377 1.9961,3.9227 3.1621,5.7851 2.3319,3.7248 5.3057,7.8866 8.9219,12.7852 7.2323,9.7972 16.9436,22.3053 27.1504,35.9219 20.4136,27.2331 42.7991,60.1222 48.9355,77.6015 l 0.1426,0.4043 0.1641,0.3985 c 30.7278,74.5946 49.4794,162.4833 29.1816,239.3007 -21.6369,-49.7722 -46.5108,-98.8085 -79.4004,-143.4336 -16.9467,-40.7276 -53.3221,-59.8341 -83.0762,-76.8183 -30.2717,-17.2798 -52.8459,-31.1161 -58.6171,-60.6973 l -0.3418,-1.7519 -0.7168,-1.6348 c -3.9481,-9.0222 -2.1577,-17.2729 4.3964,-28.6035 6.5542,-11.3307 17.9054,-23.5506 28.5157,-34.5293 5.3051,-5.4894 10.4042,-10.6851 14.8047,-15.877 4.4004,-5.1919 8.5463,-9.8334 10.6777,-18.1543 1.0657,-4.1604 1.2242,-9.9848 -1.2598,-15.2714 -2.4839,-5.2867 -6.9488,-8.8611 -10.9785,-10.8731 -4.6065,-2.3 -9.1608,-3.3798 -14.1406,-3.9609 -2.6217,-10.416 -3.5533,-18.501 -3.3379,-24.2285 0.2839,-7.5488 1.9732,-10.5967 3.9863,-12.7891 4.0263,-4.3848 16.637,-7.6586 36.1231,-7.4805 19.4861,0.1781 43.6261,2.8591 67.5468,1.75 23.9208,-1.109 49.1016,-6.1574 67.3633,-24.8691 l 1.543,-1.5801 1.0625,-1.9336 c 15.9544,-29.0654 55.6317,-75.0658 66.2812,-139.1504 l -29.998,-10.6953 c -20.2274,35.3007 -49.7676,73.2532 -85.2227,98.2988 -35.455,25.0457 -75.5788,37.5996 -122.1406,25.1446 l -1.789,-0.4785 -1.8497,-0.062 c -24.2204,-0.8135 -39.6688,-8.3166 -52.205,-20.418 -12.5362,-12.1014 -21.9429,-29.7356 -29.4707,-50.6465 -14.7414,-40.9489 -21.1947,-92.7255 -40.5625,-133.37696 -5.2681,-30.40986 10.8006,-61.93034 33.0039,-87.0332 8.201,-3.23923 14.6392,-10.04597 17.914,-16.875 4.2414,-8.84441 5.4486,-18.25257 5.4356,-27.9043 -0.026,-19.30344 -4.7772,-39.66462 -16.4707,-55.09179 -5.8468,-7.71359 -14.7261,-14.92424 -26.4531,-15.71289 z m -2.17,32.2832 c -0.5728,-0.0385 0.4439,-0.1793 2.836,2.97656 4.7841,6.31172 9.8832,22.89173 9.9004,35.58789 0.01,6.34808 -1.215,11.70466 -2.2539,13.8711 -0.1542,0.32134 -0.1662,0.41965 -0.2247,0.59179 l -5.2089,0.45117 -4.2461,4.58985 c -18.6585,20.16395 -35.8734,45.91805 -42.5625,74.7793 -1.5399,-10.57293 -2.5262,-21.02496 -2.6993,-31.29493 14.6613,-57.18205 29.8641,-87.18367 39.0196,-97.11914 4.6391,-5.03439 6.0122,-4.39507 5.4394,-4.43359 z m 857.3223,46.19141 c -8.7626,0.0584 -13.759,5.93975 -15.8672,9.27734 -2.1082,3.33758 -2.9914,6.08727 -3.8301,8.99805 -1.6773,5.82155 -2.6417,12.26532 -3.4043,19.6875 -1.5252,14.84435 -1.9152,33.13803 -1.1015,50.22461 0.6968,14.63224 1.7909,27.41068 5.414,38.62304 -27.4675,134.18659 -104.1196,252.52399 -175.9453,371.58789 -8.1136,7.2685 -14.5779,10.9093 -18.5254,12.0879 -4.2,1.254 -5.3502,0.8532 -7.625,-0.418 -4.5495,-2.5423 -12.9561,-15.0016 -19.2558,-33.5195 -6.2998,-18.5179 -11.4631,-41.7546 -16.9102,-63.4434 -5.2544,-20.9218 -10.1175,-40.0813 -19.6504,-55.0351 -22.4797,-48.4569 -22.2808,-80.3342 -17.7324,-114.8125 4.5662,-34.6132 14.7172,-72.1487 9.9414,-123.42385 l -1.8184,-19.53711 -18.8339,5.50977 c -24.9699,7.30605 -35.7918,31.013 -46.1817,52.94529 -10.3898,21.9323 -20.1081,44.9544 -29.7539,56.2637 l -6.0664,7.1113 3.1309,8.8067 c 77.2363,217.2415 98.9149,464.8959 103.0332,702.5761 -1.7682,68.3738 -26.6714,108.325 -51.8321,120.8692 -12.5977,6.2808 -25.4062,6.8737 -39.4316,1.1582 -13.6908,-5.5792 -28.552,-17.9208 -42.0176,-38.752 -34.933,-98.9883 -18.0331,-210.9207 -18.3652,-321.1816 2.294,-47.7246 6.1763,-105.7761 -4.4317,-159.6641 -10.622,-53.9596 -37.5614,-105.1476 -95.121,-131.4785 l -55.9278,-25.584 36.0996,49.793 c 67.0761,92.5191 73.6777,214.1404 73.459,329.6269 v 1.6602 l 0.3339,1.627 c 8.7795,42.7361 2.0023,90.465 -1.2812,139.6464 -3.2835,49.1815 -2.6929,100.7632 25.8887,148.1465 l 1.3457,2.2324 1.9804,1.6973 c 37.3863,32.0335 84.3443,55.8856 120.7852,84.9785 35.9318,28.6865 61.1159,59.9811 62.4141,109.8848 -10.5522,33.7473 -5.9781,63.0357 9.164,84.9199 15.6413,22.6057 39.8475,37.4365 65.5371,50.7168 29.1022,15.0444 60.1642,28.6044 85.8633,44.3262 41.8409,42.1877 74.8042,91.6969 97.3223,129.998 9.9616,16.9437 17.9143,31.6114 23.9121,42.5528 2.9989,5.4707 5.4896,9.987 7.6523,13.6191 1.0814,1.8161 2.0653,3.3993 3.1719,4.9688 1.1066,1.5694 1.5928,2.9924 5.4844,5.7832 1.9458,1.3953 5.802,4.1918 12.7422,2.9863 6.9402,-1.2056 11.5133,-7.4367 12.6953,-10.5449 2.364,-6.2166 1.2577,-7.5563 1.0703,-9.6368 -0.3749,-4.1609 -1.2459,-8.2799 -2.6055,-14.3828 -2.7192,-12.2058 -7.5142,-31.1911 -14.5449,-59.1836 l -0.5039,-2.0019 -0.9883,-1.8106 c -27.8449,-50.9939 -64.3957,-75.0116 -73.9336,-80.7285 -13.2507,-20.7135 -31.9537,-36.2261 -52.6035,-49.1347 -31.4384,-30.829 -68.1745,-57.9118 -110.3516,-75.0645 -10.7919,-75.0229 -33.6796,-164.6958 -15.9843,-229.2344 l 0.3496,-1.2734 0.1367,-1.3125 c 3.7298,-35.4733 7.0955,-60.8849 4.2793,-118.2559 6.4529,-92.1625 17.1492,-188.912 3.1309,-288.9511 l -0.1895,-1.3516 -0.4141,-1.3027 c -15.8465,-49.8701 -2.2374,-90.3975 23.5508,-131.2286 25.7732,-40.8071 64.0224,-79.6649 93.459,-120.8789 l 0.016,-0.023 c 81.4706,-112.8021 140.2991,-243.7311 117.9981,-383.60938 l -0.043,-0.26757 -0.051,-0.26758 c -2.5053,-12.9078 -4.7974,-22.07054 -7.4199,-29.13672 -1.3113,-3.53309 -2.5875,-6.54088 -4.9434,-9.82617 -2.3558,-3.2853 -7.1104,-8.69117 -15.873,-8.63281 z m -316.1348,161.29493 c -1.5634,27.5504 -6.931,51.611 -10.3769,77.7324 -2.6386,20.0014 -3.5974,41.2612 -0.2305,64.8789 -7.2806,-25.4406 -15.305,-50.5499 -23.9394,-75.3633 12.1991,-17.1956 20.1486,-38.1021 28.5976,-55.9375 1.9617,-4.1411 3.9613,-7.7761 5.9492,-11.3105 z m -271.6386,158.3242 c -3.8451,6.0913 -7.4822,12.0459 -10.7442,17.8223 -9.0149,8.4833 -22.8551,12.4518 -40.3105,13.7402 13.035,-5.6988 25.4385,-12.6533 36.9336,-20.7734 4.845,-3.4226 9.5372,-7.0458 14.1211,-10.7891 z m -220.1348,22.4238 c 13.4075,9.1773 29.5594,15.5176 48.3437,17.8887 -3.3705,2.1674 -6.6101,4.6409 -9.5332,7.8242 -7.7957,8.4899 -11.9935,20.3552 -12.4863,33.4571 -0.4928,13.1018 2.1669,27.8914 7.8379,45.8261 l 3.5293,11.1582 11.2656,0.1368 c -2.8478,3.1025 -5.591,6.1037 -9.332,9.9746 -10.7343,11.107 -23.8752,24.5972 -33.2559,40.8144 -9.0428,15.6331 -14.4261,35.8335 -6.8066,55.5625 1.4346,6.8903 3.547,13.2008 6.1855,19.041 -25.6417,-10.2906 -56.7219,-13.6065 -84.75,-17.414 25.238,-9.4012 48.3137,-24.9173 66.4786,-44.3399 35.4944,-37.9522 51.9855,-94.2904 23.5918,-146.7285 -3.2582,-10.9367 -7.0173,-22.0233 -11.0684,-33.2012 z m 494.7246,12.7637 c 2.2136,5.7018 4.5944,11.49 7.3906,17.4863 l 0.5391,1.1563 0.7148,1.0586 c 4.7128,6.9789 10.8282,25.4675 16.1055,46.4804 5.2773,21.013 10.4717,44.8523 17.6602,65.9825 7.1884,21.1302 15.4028,40.8925 34.1054,51.3437 6.3158,3.5293 13.9159,5.0892 21.6192,4.8145 -25.3722,42.9158 -40.186,92.6828 -22.9707,148.8125 13.1406,94.8574 2.9547,189.0549 -3.5332,282.0176 l -0.068,0.9687 0.049,0.9707 c 2.829,56.1708 -0.2491,77.8941 -4.0136,113.5566 -7.4884,28.2792 -8.8152,58.4782 -6.9844,88.8946 -13.8148,-26.1689 -34.2943,-47.4301 -56.7422,-65.3516 -9.9825,-7.9696 -20.3835,-15.4389 -30.8848,-22.6035 7.5155,-1.2931 14.8687,-3.5927 21.8203,-7.0586 40.8975,-20.39 67.8654,-73.3521 69.7559,-149.2969 l 0.01,-0.3418 -0.01,-0.3398 c -3.3147,-192.2134 -17.9347,-391.9199 -64.5645,-578.5508 z m -330.6504,98.1934 c 0.066,0.1503 0.9307,0.524 1.2793,2.0976 -0.059,-0.093 -0.2356,-0.3275 -0.291,-0.416 -0.7152,-1.1424 -1.1135,-1.9652 -0.9883,-1.6816 z m -64.5078,208.4922 c 19.4384,12.3661 35.4791,26.0133 43.7852,46.8847 -14.0009,-16.2581 -28.6734,-31.8783 -43.7852,-46.8847 z m 181.5859,193.4668 c -1.111,6.9484 -2.2219,13.8985 -3.666,20.7558 l -1.2715,6.0391 3.0743,5.3535 c 3.6065,6.2791 6.7414,19.9781 6.9648,35.0078 0.2234,15.0297 -2.0366,31.5092 -5.9668,44.1465 -3.9302,12.6373 -10.5478,20.1915 -11.4414,20.6328 -0.4468,0.2206 0.8711,0.3644 -0.4336,-0.1855 -0.9816,-0.4139 -3.3007,-1.896 -6.3555,-5.1446 -0.4375,-21.9719 -2.9611,-43.3152 -7.2988,-64.0332 l 13.1992,-28 c 5.3338,-11.3144 9.6439,-22.8705 13.1953,-34.5722 z m 286.8536,417.3007 c 2.465,13.7224 4.8943,27.1514 7.0683,39.9727 -6.8859,-10.8774 -10.0486,-22.9299 -7.0683,-39.9727 z m 291.7187,328.1055 c 0.3742,0.4053 0.3305,0.4958 0.1641,0.2598 -0.026,-0.037 -0.1319,-0.2126 -0.1641,-0.2598 z m -26.666,9.6035 c 0.012,0.091 0.1476,0.7428 0.1523,0.7949 0.017,0.1884 -0.1951,0.041 -0.1523,-0.7949 z"
               id="path2140" />
          </g>
          <g
             id="g2148"
             style="fill:#000000;fill-opacity:1">
            <path
               style="color:#000000;fill:#000000;fill-opacity:1;stroke:none;-inkscape-stroke:none"
               d="m 1560,2235 c 5.0926,-42.5638 95.5476,-152.6416 68.8671,-44.5145 -7.6722,28.3762 -37.6615,57.1574 -68.8671,44.5145 z"
               id="path2144" />
            <path
               style="color:#000000;fill:#000000;fill-opacity:1;stroke:none;-inkscape-stroke:none"
               d="m 1625.5313,2128.1465 c -4.9019,0.064 -8.8156,1.4214 -12.2618,3.039 -6.8924,3.2354 -12.4588,7.8789 -18.1875,13.4375 -11.4573,11.1173 -22.8623,26.2363 -32.289,41.9297 -9.4267,15.6935 -17.0109,31.0918 -18.8575,46.5254 l -1.4687,12.2754 11.459,4.6406 c 21.2343,8.6031 43.3052,2.7405 58.9687,-8.873 15.6636,-11.6135 26.7273,-28.4274 31.5899,-46.4121 l 0.047,-0.1738 0.043,-0.1739 c 3.5133,-14.2381 5.2906,-25.2509 5.3809,-34.5976 0.09,-9.3468 -0.6946,-18.6128 -9.2031,-26.0821 -4.2543,-3.7346 -10.3189,-5.599 -15.2207,-5.5351 z m -8.8555,40.6973 c -0.6816,4.7795 -1.7308,10.4626 -3.4668,17.5312 -2.8342,10.3646 -10.5671,22.067 -19.586,28.7539 -4.1478,3.0754 -8.1934,5.0685 -12.3105,6.084 2.4355,-5.6092 5.5195,-11.8448 9.2168,-18 7.8452,-13.0606 17.8536,-26.0898 26.1465,-34.3691 z"
               id="path2146" />
          </g>
          <g
             id="g2154"
             style="fill:#000000;fill-opacity:1">
            <path
               style="color:#000000;fill:#000000;fill-opacity:1;stroke:none;-inkscape-stroke:none"
               d="m 1506,2139 c -69.4622,28.0316 -71.6868,-123.8193 -7.995,-36.0119 32.4614,14.7875 65.051,69.0591 7.995,36.0119 z"
               id="path2150" />
            <path
               style="color:#000000;fill:#000000;fill-opacity:1;stroke:none;-inkscape-stroke:none"
               d="m 1463.3105,2059.1699 c -1.2213,0.064 -2.4559,0.2113 -3.7031,0.4473 -9.9778,1.8882 -17.1161,9.8639 -20.2558,17.2148 -3.1398,7.3509 -3.8559,14.8981 -3.4356,22.625 0.8407,15.454 6.3992,32.1829 19.1719,44.8711 11.2369,11.1626 29.6938,17.0494 49.0137,12.2383 11.5566,6.6516 19.7232,10.6287 31.6933,8.8262 7.0331,-1.0591 16.0294,-9.3217 17.2637,-16.6934 1.2343,-7.3716 -0.7694,-12.0377 -2.7305,-16.4004 -7.3441,-16.3375 -22.4238,-32.1464 -41.6797,-42.0195 -7.625,-10.1029 -14.6819,-17.6048 -21.8964,-22.8711 -6.9923,-5.104 -14.8917,-8.6874 -23.4415,-8.2383 z m 5.0606,35.0156 c 3.8316,2.947 9.5629,8.688 16.5371,18.3028 l 2.5059,3.4531 3.8847,1.7695 c 2.9002,1.3212 6.0975,3.4831 9.2989,6.0235 l -0.6524,0.2636 c -12.637,5.0997 -16.8625,2.531 -22.0527,-2.625 -5.1903,-5.1559 -9.2312,-15.6449 -9.668,-23.6738 -0.073,-1.3424 0.057,-2.4006 0.1465,-3.5137 z"
               id="path2152" />
          </g>
          <g
             id="g2160"
             style="fill:#000000;fill-opacity:1">
            <path
               style="color:#000000;fill:#000000;fill-opacity:1;stroke:none;-inkscape-stroke:none"
               d="m 1225,1953 c 115.2434,-10.1473 36.0272,-149.1917 -10.5972,-195.7219 70.7057,-10.5104 187.7258,88.61 111.9255,159.6291 -15.21,22.8358 -104.9574,60.6231 -101.3283,36.0928 z"
               id="path2156" />
            <path
               style="color:#000000;fill:#000000;fill-opacity:1;stroke:none;-inkscape-stroke:none"
               d="m 1228.7188,1740.2578 c -5.6208,-0.1258 -11.2012,0.2009 -16.6954,1.0176 l -31.8183,4.7305 22.7695,22.7246 c 20.8516,20.8094 51.7587,66.8138 61.8008,104.2441 5.021,18.7152 4.6336,34.348 -0.5508,44.1289 -5.1843,9.781 -15.2108,17.5418 -40.6445,19.7813 l -12.7168,1.1191 -1.8672,12.6289 c -1.1161,7.5438 3.4949,18.5838 10.4258,22.7031 6.9309,4.1194 12.9071,4.0547 18.6328,3.7383 11.4513,-0.6327 23.5188,-4.2951 36.3789,-9.2676 12.8601,-4.9724 26.0652,-11.3876 37.5293,-18.3457 10.6249,-6.4487 19.5705,-12.6458 26.1973,-21.5449 21.2504,-20.3158 30.474,-45.1017 28.7343,-68.5859 -1.7619,-23.785 -13.4698,-45.4453 -29.4726,-63.5313 -28.0049,-31.6505 -69.3576,-54.6604 -108.7031,-55.541 z m 24.125,37.8438 c 21.6335,7.2715 44.6854,21.4397 60.3457,39.1386 12.6153,14.2577 20.3674,30.0347 21.4375,44.4805 1.07,14.4458 -3.2952,28.33 -19.3594,43.3809 l -1.3672,1.2793 -1.0371,1.5586 c -0.7945,1.1927 -7.0008,6.8754 -15.2539,12.2441 5.2582,-17.5993 3.4473,-36.8474 -1.5821,-55.5938 -8.2532,-30.7628 -25.1936,-61.6112 -43.1835,-86.4882 z"
               id="path2158" />
          </g>
          <g
             id="g2166"
             style="fill:#000000;fill-opacity:1">
            <path
               style="color:#000000;fill:#000000;fill-opacity:1;stroke:none;-inkscape-stroke:none"
               d="m 1156,1884 c 12.6024,-60.359 60.7695,-111.623 69.2453,-23.1489 -2.1954,37.8141 -44.6973,47.3023 -69.2453,23.1489 z"
               id="path2162" />
            <path
               style="color:#000000;fill:#000000;fill-opacity:1;stroke:none;-inkscape-stroke:none"
               d="m 1204.125,1797.2461 c -7.8857,-0.5822 -14.9226,2.0933 -20.6152,5.7012 -22.7706,14.4313 -36.391,44.4269 -43.3477,77.7461 l -1.8047,8.6445 6.2949,6.1953 c 16.3563,16.0933 39.0731,21.4475 58.8887,15.6602 19.8156,-5.7874 36.4122,-24.5446 37.8555,-49.4043 l 0.072,-1.2422 -0.1192,-1.2383 c -2.2718,-23.7141 -6.3691,-39.7659 -16.5957,-51.3574 -5.1133,-5.7958 -12.7432,-10.1229 -20.6289,-10.7051 z m -3.1504,32.957 c 1.85,2.7568 6.069,12.7206 7.9824,30.916 -1.0481,12.0032 -6.6395,16.7214 -14.4882,19.0137 -5.9614,1.7411 -13.3653,1.1103 -20.125,-2.5215 7.0514,-23.2557 20.6981,-43.6636 26.4863,-47.332 0.083,-0.053 0.069,-0.03 0.1445,-0.076 z"
               id="path2164" />
          </g>
        </g>
      </g>
    </g>
    <g
       id="g5350"
       transform="translate(10.09087,1.7642601)"
       style="opacity:0.83871;mix-blend-mode:normal;fill:#6c717c;fill-opacity:0.509434;filter:url(#filter5370)">
      <g
         id="g5348"
         style="display:inline;fill:#6c717c;fill-opacity:0.509434"
         transform="translate(152.45914,-38.026191)">
        <g
           transform="matrix(0.15290355,0,0,-0.11550011,-248.78808,377.49944)"
           style="fill:#6c717c;fill-opacity:0.509434;stroke:#000000;stroke-width:32.357"
           id="g5346">
          <g
             id="g5308"
             style="fill:#6c717c;fill-opacity:0.509434">
            <path
               style="color:#000000;fill:#6c717c;fill-opacity:0.509434;stroke:none;-inkscape-stroke:none"
               d="m 1560,2979 c -82.7101,-156.7919 -185.4139,-321.6878 -167.0747,-506.6189 29.6914,-62.7752 56.8523,-135.4251 67.7346,-200.6733 -60.8308,-38.5972 -167.3455,-40.3628 -164.7971,-135.9919 -35.6296,14.1417 -7.0537,-64.0488 -63.451,-60.4582 -104.0117,-14.3688 -186.4335,-81.7176 -264.59195,-146.5922 -71.95344,-30.9276 -133.29938,-99.3438 -72.73886,-174.1403 36.62066,-82.2305 -25.21074,-187.7947 44.43706,-261.3979 65.12025,-63.3927 55.88977,32.2322 9.83315,57.3686 -48.16409,62.148 44.29069,151.9583 -22.37694,211.9894 -101.35715,49.0443 32.67226,140.7358 97.93504,148.3029 80.5464,78.2517 176.7292,137.7401 284.1038,175.6317 23.3738,12.9671 100.8648,65.0321 37.1109,75.8392 17.4913,97.0656 151.6914,73.215 204.98,141.9714 77.1422,-9.0474 174.0309,-39.3412 209.0746,57.608 105.1487,135.7044 212.8822,286.7924 220.6761,464.6947 66.869,9.1238 22.4123,-116.7377 53.9512,-158.257 14.0066,-58.4414 4.035,-221.1762 -2.0255,-195.9895 58.6883,98.1094 5.9143,212.832 11.9197,318.3344 -4.1154,40.5682 -18.409,166.1691 -66.6115,132.0661 -42.5838,-164.3695 -103.5861,-323.9458 -178.4248,-475.8224 -43.9155,-67.7831 -104.816,54.9092 -94.002,25.0513 4.1087,-126.9792 -89.8932,92.6861 -49.1835,-18.8585 -64.5907,-26.4775 -76.4413,114.8532 -76.1503,166.1042 -11.6159,119.6556 -7.5758,240.2664 -20.328,359.8382 z m 24.3339,-530.8643 c -33.134,-37.8217 -67.3782,32.3132 -45.4788,-5.2014 29.2736,-55.7765 -52.3646,-10.7154 -38.7229,-20.8637 127.6536,-109.4677 -71.3769,-43.952 -60.9476,21.3729 -15.53,95.7832 -21.105,195.3411 11.9992,288.4527 22.8863,48.1144 38.5755,143.1881 90.2393,149.6179 18.8083,-64.6787 -1.047,-136.2104 14.0332,-204.4273 2.2938,-40.4248 24.567,-188.6873 28.8776,-228.9511 z M 1543,2349 c -30.2024,-40.3751 -57.8655,30.3912 0,0 z"
               id="path5304" />
            <path
               style="color:#000000;fill:#6c717c;fill-opacity:0.509434;stroke:none;-inkscape-stroke:none"
               d="m 975.94922,1455.6621 c -16.91093,-0.9893 -30.11692,8.7401 -47.7168,25.8731 l -0.23828,0.2304 -0.22656,0.2422 c -39.12069,41.3424 -41.23325,92.5239 -39.01367,139.3496 2.18955,46.1923 7.25384,89.7026 -7.85938,125.1172 -31.81223,40.7678 -32.30999,85.0041 -13.29687,119.3984 18.94755,34.2758 53.96265,60.0062 91.49609,76.5684 77.78535,64.5571 162.19355,133.7963 271.10355,148.8418 l 1.6152,0.2246 1.627,-0.1035 c 10.47,-0.6666 12.8017,1.3689 15.5195,4.459 2.7177,3.0901 5.2593,9.5044 7.2773,17.5273 2.0181,8.023 2.8379,16.9543 8.7871,26.7422 2.9212,4.8061 8.2911,10.1503 15.4082,12.3086 2.1175,19.3312 8.6938,35.8212 18.5723,49.0977 12.6895,17.0544 29.952,28.7362 48.166,37.9843 32.4304,16.4665 68.8082,26.4481 95.3985,40.4786 -11.5868,60.162 -36.6815,127.1369 -64.2676,185.4609 l -1.1992,2.5332 -0.2754,2.7891 c -19.0178,191.7733 86.5499,359.7201 168.8652,515.7636 l 24.7656,46.9512 5.6309,-52.7852 c 12.9121,-121.0707 8.8637,-241.7345 20.3437,-359.9902 l 0.08,-0.8242 -0.01,-0.8301 c -0.138,-24.2941 2.8984,-71.9431 13.1211,-107.6562 5.1113,-17.8566 12.3481,-32.4942 19.1796,-39.418 2.0521,-2.0798 3.7941,-3.6237 5.5332,-4.7285 -1.148,3.459 -2.2199,6.7381 -2.8828,9.1816 -0.8288,3.0554 -2.341,3.4564 -1.2148,11.2129 0.2815,1.9391 0.7225,5.0475 4.0644,8.8047 3.342,3.7572 10.3475,5.9171 14.4473,5.3828 8.1996,-1.0685 8.7718,-3.7695 10.0586,-5.0137 5.147,-4.9767 6.404,-8.0616 9.8984,-13.3242 3.4945,-5.2625 7.5782,-11.4897 11.8067,-17.4199 2.9531,-4.1415 5.902,-7.8703 8.6933,-11.1563 0.2866,3.9409 0.4245,8.8394 0.2911,14.6993 -0.3165,0.9905 -0.6941,1.7756 -0.9688,3.2929 -0.272,1.5025 -2.0518,2.9051 1.0645,10.086 1.5581,3.5904 7.1175,8.8265 12.4941,9.6601 5.3766,0.8337 8.3224,-0.746 10.0508,-1.6269 6.9133,-3.5237 5.6188,-4.3618 6.7558,-5.7031 1.1371,-1.3414 2.2212,-2.7268 3.4668,-4.3223 4.9824,-6.3822 12.447,-16.0465 20.9395,-24.1465 8.4925,-8.1 17.8842,-13.7029 23.6836,-14.4473 5.6986,-0.7314 10.1489,-0.273 18.6875,12.6836 74.1483,150.6462 134.573,308.8261 176.7519,471.6328 l 1.4844,5.7305 4.832,3.4199 c 8.0904,5.7239 17.2948,9.2005 26.6836,8.7325 9.3889,-0.4681 17.7411,-4.959 23.8457,-10.6387 12.2093,-11.3594 18.6479,-27.1547 24.0899,-44.4863 10.884,-34.6634 15.3553,-76.7608 17.4336,-97.2481 l 0.1289,-1.2734 -0.074,-1.2793 c -2.831,-49.7345 8.5246,-104.0903 13.7519,-159.5 4.8723,-51.646 4.0485,-105.1385 -21.8867,-155.3047 -0.4845,-3.162 -1.1117,-6.1716 -2.4277,-9.6055 -0.558,-1.4558 -1.0066,-3.1251 -3.5508,-6.0312 -1.2721,-1.4531 -3.2675,-3.4238 -6.8926,-4.7578 -3.6251,-1.3341 -8.8923,-1.1632 -12.4141,0.3886 -7.0434,3.1037 -7.8727,6.8526 -8.7851,8.8477 -0.9124,1.9951 -1.2609,3.3723 -1.5957,4.7637 l -1.5449,6.4218 3.3906,5.668 c 0.8884,1.4851 1.6779,2.9865 2.5117,4.4805 0.089,0.6 0.082,0.358 0.1602,0.9882 1.4559,11.7237 2.8417,31.3233 3.58,53.4004 1.4343,42.8847 -0.019,96.5424 -5.6054,122.5704 -9.327,14.2975 -11.9086,31.3017 -13.2032,48.5625 -1.402,18.6944 -0.8597,38.2058 -1.4296,55.2617 -0.57,17.0558 -2.8201,31.5781 -6.2442,38.2519 -0.9753,1.901 -1.8634,3.0524 -2.7617,3.9258 -14.0547,-175.3697 -119.953,-323.0657 -221.5469,-454.2793 -19.7136,-51.5372 -60.1251,-72.8892 -101.4902,-76.582 -39.0104,-3.4826 -79.7106,5.0362 -115.1777,9.8008 -31.4679,-34.3617 -78.5037,-44.9223 -117.1778,-58.3907 -20.6527,-7.1924 -39.081,-15.0402 -52.4707,-25.5742 -10.0222,-7.8847 -17.522,-16.8662 -22.2187,-29.5215 2.297,-0.981 4.5195,-2.0597 6.6015,-3.373 6.654,-4.1971 12.334,-11.2837 13.9414,-19.2324 3.2149,-15.8975 -5.582,-27.0495 -14.0742,-36.5274 -16.9844,-18.9558 -42.3427,-34.8198 -55.4297,-42.0801 l -1.1855,-0.6582 -1.2793,-0.4511 c -105.2226,-37.1322 -199.3443,-95.3588 -278.2129,-171.9805 l -3.9473,-3.832 -5.4629,-0.6348 c -26.4636,-3.0684 -76.02398,-27.2237 -101.6816,-53.7695 -12.82882,-13.2729 -18.96356,-26.2417 -18.58985,-34.9707 0.37372,-8.7291 5.21785,-18.1365 27.51953,-28.9278 l 2.07032,-1.0019 1.70898,-1.5391 c 19.53939,-17.5943 28.42459,-39.3815 30.14649,-60.4121 1.72189,-21.0306 -2.63701,-41.3108 -7.08594,-60.4707 -4.44894,-19.1599 -9.05196,-37.3082 -9.79102,-52.9902 -0.69517,-14.7509 1.51547,-26.6641 9.55274,-38.0684 13.26703,-8.2628 23.07971,-20.2432 29.95898,-32.7617 7.48177,-13.615 11.77577,-27.7627 11.72267,-41.2559 -0.027,-6.7465 -1.0418,-13.6331 -5.16603,-20.2832 -4.12427,-6.65 -12.73399,-12.1088 -21.18945,-12.6035 z m -6.16016,34.7012 c -0.37794,5.8695 -2.8289,15.2399 -7.56445,23.8574 -5.16735,9.4033 -12.69578,17.7477 -20.62305,22.0742 l -2.96679,1.6192 -2.07227,2.6718 c -7.27095,9.382 -11.92047,19.5072 -14.66797,29.8204 2.84124,-24.2746 10.65174,-46.2177 29.11524,-65.8633 8.26518,-8.0028 14.72648,-12.0236 18.77929,-14.1797 z m -48.48047,133.3633 c 2.17932,12.8049 5.25885,25.2686 8.03321,37.2168 4.31078,18.5649 7.55565,35.877 6.35742,50.5117 -1.16245,14.1977 -5.56359,25.8726 -18.41602,37.8984 -1.19484,0.6136 -2.34099,1.2528 -3.49023,1.8906 15.27576,-42.3437 9.67908,-86.786 7.51562,-127.5175 z m 2.42188,258.9707 c 28.70048,22.1801 63.77889,38.3027 93.55863,43.1484 49.1938,47.1887 104.0273,87.5864 163.5136,120.5781 -74.6656,-25.1767 -139.292,-77.6171 -202.65036,-130.207 l -1.79687,-1.4922 -2.14649,-0.9219 c -18.52222,-7.9613 -36.02436,-18.7627 -50.47851,-31.1054 z m 360.66603,211.9043 c 5.837,2.2254 11.7097,4.3812 17.6133,6.4785 10.6673,6.0313 34.761,22.119 46.1816,34.8652 2.8604,3.1924 4.3155,5.9218 5.1426,7.586 -1.8977,0.8495 -4.8505,1.919 -9.9141,2.7773 l -16.1172,2.7324 2.8985,16.0879 c 2.2974,12.7491 6.6296,23.9665 12.3242,33.8477 -6.9504,-5.0447 -12.9363,-10.5365 -17.5625,-16.7539 -8.4662,-11.3784 -13.4849,-25.1704 -12.9277,-46.0762 l 0.6543,-24.5156 -20.9727,8.3242 c -0.8791,-2.6125 -2.2031,-6.9116 -4.1016,-14.459 -0.8498,-3.3785 -1.925,-7.0965 -3.2187,-10.8945 z m 192.0371,180.7148 c 25.5505,9.6234 47.9081,20.7931 61.8828,38.8242 l 5.5977,7.2227 9.0742,-1.0645 c 39.8676,-4.6757 82.5798,-13.9714 117.0019,-10.8984 34.4222,3.073 59.2544,14.4524 74.9727,57.9375 l 0.8672,2.3965 1.5605,2.0136 c 10.0572,12.9797 20.0534,26.1953 30.0254,39.4239 -4.8837,-1.1105 -9.786,-1.4471 -14.5469,-0.836 -17.6327,2.2634 -31.0261,12.7571 -41.8964,23.125 -0.7655,0.7301 -1.4229,1.4711 -2.1641,2.2071 -0.146,-0.4874 -0.2269,-1.0309 -0.3848,-1.5098 -1.6296,-4.9439 -4.0194,-9.8527 -8.7871,-13.9043 -4.7676,-4.0516 -12.1325,-5.944 -17.75,-5.209 -11.235,1.4701 -16.6933,7.4686 -22.3008,13.2207 -2.8683,2.9423 -5.5925,6.1293 -8.2089,9.4219 -20.6188,-7.8732 -42.3212,-1.8778 -55.6036,11.584 -2.2351,2.2653 -4.2628,4.7174 -6.2031,7.25 0.1983,-1.711 0.6926,-5.197 0.8496,-6.6641 l 0.7559,-7.0488 -4.6719,-5.334 c -10.1771,-11.617 -23.6034,-17.2667 -35.4922,-16.9941 -0.5802,-4.8321 -2.2018,-9.7027 -5.6289,-13.5977 -3.0061,-3.4166 -6.5353,-5.4326 -10.0332,-6.7031 0.3263,-0.4013 0.7421,-0.8422 1.0567,-1.2383 7.8322,-9.8637 13.547,-17.6628 12.7324,-29.9687 -0.191,-2.8843 -1.1901,-5.9479 -2.6621,-8.7774 l 10.8437,-5.6933 -11.3652,-15.1934 c -9.618,-12.8575 -22.4646,-20.2222 -35.1426,-19.1934 -12.678,1.0288 -21.9638,9.1647 -25.9062,19.25 -1.9713,5.0427 -2.8228,11.1599 -0.5938,17.6211 0.046,0.1322 0.1426,0.2512 0.1914,0.3828 -14.7383,6.613 -30.0038,16.0505 -43.041,27.7325 -2.5613,2.295 -5.0353,4.7451 -7.4414,7.2714 14.2963,-39.0122 25.9762,-78.9477 32.4121,-117.0566 z m 40.9707,107.7754 c -5.9481,6.7593 -14.8409,15.5049 -27.1992,26.1445 -1.0604,0.614 -1.6853,0.076 -5.0801,5.2364 -0.9194,1.3976 -2.6948,3.5411 -2.7227,8.957 -0.028,5.4158 5.202,12.8005 9.1817,14.7285 7.9593,3.8559 8.9729,1.5998 10.2812,1.3711 5.2333,-0.9146 5.573,-1.5949 8.2246,-2.5625 4.6153,-1.6841 10.7074,-3.7452 16.0196,-5.0488 -0.5027,1.1151 -0.802,1.9758 -1.4864,3.291 -2.4383,4.1618 -4.1817,7.0029 -5.1679,8.5762 -0.5179,0.8262 -0.7834,1.2254 -1.2188,1.9453 -0.1088,0.1799 -0.2252,0.367 -0.4765,0.83 -0.1257,0.2316 -0.283,0.5112 -0.5625,1.1329 -0.2795,0.6216 -0.9081,0.7755 -1.3457,4.9941 -0.2189,2.1093 4.6064,13.0673 4.6074,13.0684 10e-4,10e-4 13.8339,4.8617 16.5215,3.9824 5.3751,-1.7587 4.9991,-2.6555 5.584,-3.1621 1.1697,-1.0133 1.2324,-1.1806 1.4335,-1.4004 1.6093,-1.7586 1.5003,-1.7552 2.6622,-2.9883 1.1618,-1.2331 2.7338,-2.773 4.5136,-4.2227 3.5597,-2.8992 7.7917,-4.9719 10.4317,-5.207 1.6868,-0.1502 3.2808,-0.1194 5.6406,1.4883 -2.5702,21.8257 -8.2761,62.8972 -14.1387,106.1309 -6.3,46.4599 -12.3062,92.0156 -13.6894,114.4765 -14.225,65.9808 -0.03,130.1012 -9.6543,184.8985 -2.9127,-2.1153 -5.799,-4.679 -8.7539,-8.1133 -7.3659,-8.561 -14.3752,-21.2329 -20.6504,-35.7285 -12.377,-28.5904 -21.7161,-63.4498 -34.0586,-89.8204 -31.5416,-89.0349 -26.4689,-185.5541 -11.1465,-280.0566 l 0.416,-2.5703 -0.4101,-2.5703 c -1.278,-8.0045 4.7338,-19.8989 17.8945,-31.6914 12.7641,-11.4372 30.6449,-21.2968 44.3496,-26.1094 z m -7.0273,51.5059 c -0.7698,0.8545 -0.8865,0.6752 -0.5879,0.4531 l 0.4492,-0.334 z m -87.9727,11.7675 c -6.5787,41.6516 -11.3072,84.2532 -11.6855,127.002 -4.0537,-31.78 -4.9443,-64.0382 -1.8946,-96.8438 4.619,-9.8323 9.1373,-19.9256 13.5801,-30.1582 z m 272.1875,17.586 c -0.087,0.106 -0.3064,0.3897 -0.375,0.4707 -0.3156,0.3723 -0.5812,0.2518 0.375,-0.4707 z m 152.9258,46.2578 c 60.8413,93.574 108.3741,193.9678 116.373,304.0273 -32.1191,-103.8338 -71.2695,-205.4198 -116.373,-304.0273 z m 176.6699,314.1113 c -2.6839,18.2877 -6.3776,38.5526 -11.6953,55.4883 -4.6712,14.8767 -11.1035,26.6232 -15.2598,30.4902 -2.0781,1.9335 -2.7808,1.9781 -3.416,2.0098 -0.3086,0.015 -0.9206,-0.01 -1.8906,-0.3418 -6.1743,-23.5398 -12.7947,-46.9535 -19.7031,-70.2832 l 6.4453,0.8789 c 10.708,1.461 20.9853,0.3368 29.7031,-4.0664 6.6546,-3.3611 11.9065,-8.4685 15.8164,-14.1758 z m -489.7656,72.334 c 1.6463,0.3542 3.2973,0.7017 5.0039,0.9141 l 10.6484,1.3261 c -0.4662,8.1143 -0.9784,16.2198 -1.5429,24.3145 -4.739,-8.8265 -9.3745,-17.6919 -14.1094,-26.5547 z"
               id="path5306" />
          </g>
          <g
             id="g5314"
             style="fill:#6c717c;fill-opacity:0.509434">
            <path
               style="color:#000000;fill:#6c717c;fill-opacity:0.509434;stroke:none;-inkscape-stroke:none"
               d="M 1984.143,2641.2025 C 1959.0288,2519.1678 1872.2547,2434.0184 1825,2321 c 119.7252,20.4843 115.1826,164.0785 142.4896,254.6985 4.6415,19.173 26.448,107.0045 16.6534,65.504 z"
               id="path5310" />
            <path
               style="color:#000000;fill:#6c717c;fill-opacity:0.509434;stroke:none;-inkscape-stroke:none"
               d="m 1798.7207,2300.0898 11.3535,27.1504 c 44.4909,106.4083 119.1598,185.7215 150.25,286.8418 2.0072,8.0897 3.3885,13.7831 5.2129,21.0567 2.41,9.6085 4.294,17.0581 5.1856,20.3105 0.1114,0.4066 0.2034,0.7376 0.3378,1.1817 0.067,0.222 0.1251,0.4312 0.3223,0.9804 0.099,0.2746 0.1876,0.5776 0.6035,1.4629 0.208,0.4427 0.4258,0.9917 1.2891,2.2559 0.8633,1.2642 11.5553,6.9588 11.5566,6.959 0,1e-4 16.9243,-9.7397 17.5391,-12.2891 0.6148,-2.5494 0.457,-3.2862 0.4512,-3.9473 -0.012,-1.3221 -0.094,-1.6407 -0.1368,-1.9746 -0.086,-0.6677 -0.1323,-0.8791 -0.1777,-1.1211 -0.091,-0.4839 -0.1668,-0.8367 -0.2656,-1.2929 -0.3954,-1.825 -1.1216,-4.958 -2.3535,-10.1778 l 0.1015,0.4551 c -2.3972,-11.6488 -5.461,-22.8487 -8.8066,-33.8555 -3.0504,-12.3063 -6.6393,-26.7017 -7.9688,-32.1933 l -0.1054,-0.4336 -0.1289,-0.4277 c -12.9009,-42.8124 -18.6241,-101.8243 -36.791,-154.2774 -18.167,-52.4531 -52.3709,-100.3935 -118.461,-111.7012 z m 56.416,47.2618 c 31.2512,15.458 47.9678,43.8756 60.4766,79.9922 4.598,13.2759 8.2678,27.4981 11.6074,42.041 -24.7195,-40.7782 -50.8864,-80.1267 -72.084,-122.0332 z"
               id="path5312" />
          </g>
          <g
             id="g5320"
             style="fill:#6c717c;fill-opacity:0.509434">
            <path
               style="color:#000000;fill:#6c717c;fill-opacity:0.509434;stroke:none;-inkscape-stroke:none"
               d="m 1945.6198,2321.8897 c -53.5413,-90.4908 -247.2712,-84.6949 -204.1925,-211.5023 -1.388,-113.398 -118.5304,-148.7167 -188.9394,-209.0448 -51.8988,-86.0393 -3.4954,-189.6295 -22.6137,-282.6925 0.2198,-116.0725 -5.8475,-241.6474 -76.5399,-339.1546 104.5177,47.8121 94.7174,179.9452 90.1132,275.8536 0.395,109.2509 -17.7649,224.2138 19.8553,328.907 60.3267,95.7025 160.551,54.1941 164.1478,-90.2983 -4.1143,-238.5852 -25.7184,-488.007 -103.9758,-708.1206 25.2668,-29.6243 37.5191,-95.21178 68.1708,-104.1803 9.0228,96.8727 -38.5051,141.2419 9.4701,244.12 29.9215,44.3092 28.8973,218.009 108.9301,143.4851 72.6894,-120.6099 152.4433,-242.2509 180.1565,-382.93477 -13.1132,-30.38327 -4.9247,-174.87522 14.3974,-75.32667 21.3563,133.95274 -34.9876,260.62394 -115.1525,371.61164 -56.6561,79.357 -154.2971,156.3847 -119.3133,266.4808 13.6956,97.7362 3.1767,193.4918 -3.3015,286.3146 2.8963,57.5085 -0.3904,80.9589 -4.1753,116.9558 -20.3474,74.2114 7.1185,170.2839 16.9388,244.9685 207.0194,75.4971 293.5965,425.2193 237.3372,201.2239 -29.8836,-54.7276 -71.3133,-76.6661 -71.3133,-76.6661 z M 1108,989 c 36.6236,73.7991 26.9342,212.3676 137.3596,216.0764 103.1592,27.5945 183.3988,-57.4104 225.5827,-131.0293 -9.7735,58.8131 -46.8792,101.908 -64.5043,134.017 -55.9306,57.3088 -215.0603,-40.1429 -172.5114,94.4201 76.1297,0.928 -60.1983,59.3627 -34.4291,118.2512 14.2969,73.28 115.1639,70.3123 143.4239,142.4141 40.6188,54.657 69.275,116.9744 94.7401,179.8062 42.8706,-90.9415 21.3742,-200.5258 -15.4142,-289.8329 -15.5778,-44.3731 -91.408,-129.0368 -89.0805,-135.3383 130.2807,93.819 176.4728,269.7123 144.4885,421.5868 23.9232,41.6517 -1.7123,167.5218 -47.2891,108.6141 -0.3515,-159.0838 -117.6193,-286.7165 -232.6816,-382.3972 -45.4093,-27.3845 -157.1575,-18.9132 -167.1879,-46.9892 93.0244,16.4404 202.3614,-83.7275 149.8597,-176.9761 -29.6999,-100.8809 -105.3061,-219.2144 -106.1678,-327.71308 60.5121,-239.29769 118.9217,-34.66478 73.4117,-30.72159 C 1121.611,911.27452 1100.2623,949.43196 1108,989 Z"
               id="path5316" />
            <path
               style="color:#000000;fill:#6c717c;fill-opacity:0.509434;stroke:none;-inkscape-stroke:none"
               d="m 1137.0938,781.84766 c -11.7271,-0.78866 -22.7692,5.42013 -31.4043,14.79101 -17.2704,18.74177 -31.7716,52.34929 -47.1856,113.30469 l -0.5098,2.01562 0.016,2.08008 c 0.9206,115.92034 78.2591,235.11934 106.8261,332.15234 l 0.5196,1.7656 0.9043,1.6035 c 22.6802,40.2826 10.8051,79.7517 -18.0762,110.6329 -28.8813,30.8811 -74.9738,49.5257 -114.8711,42.4746 l -27.418,-4.8457 9.3672,26.2187 c 5.7963,16.2245 20.4959,21.3935 34.7793,25.4551 14.2835,4.0616 31.032,6.461 48.5703,8.8828 34.6117,4.7795 72.5591,10.6446 89.9395,20.6758 113.3658,94.4869 225.3039,218.3515 225.6367,368.9668 l 0.012,5.5078 3.3711,4.3555 c 6.7749,8.7564 13.8819,15.2838 22.6094,18.9629 8.7275,3.679 19.3381,3.3294 27.3301,-0.6172 15.9839,-7.8932 22.8263,-23.364 28.0117,-40.0371 5.1853,-16.6732 7.6979,-35.7918 7.4238,-54.2364 -0.2402,-16.1655 -2.2938,-31.7202 -8.4219,-45.1113 30.7843,-156.0648 -16.9917,-335.0363 -151.9023,-432.1894 l -17.2617,-12.4297 -7.3692,19.9531 c -3.6385,9.8511 -0.1656,11.9712 0.8223,14.209 0.9879,2.2377 1.9961,3.9227 3.1621,5.7851 2.3319,3.7248 5.3057,7.8866 8.9219,12.7852 7.2323,9.7972 16.9436,22.3053 27.1504,35.9219 20.4136,27.2331 42.7991,60.1222 48.9355,77.6015 l 0.1426,0.4043 0.1641,0.3985 c 30.7278,74.5946 49.4794,162.4833 29.1816,239.3007 -21.6369,-49.7722 -46.5108,-98.8085 -79.4004,-143.4336 -16.9467,-40.7276 -53.3221,-59.8341 -83.0762,-76.8183 -30.2717,-17.2798 -52.8459,-31.1161 -58.6171,-60.6973 l -0.3418,-1.7519 -0.7168,-1.6348 c -3.9481,-9.0222 -2.1577,-17.2729 4.3964,-28.6035 6.5542,-11.3307 17.9054,-23.5506 28.5157,-34.5293 5.3051,-5.4894 10.4042,-10.6851 14.8047,-15.877 4.4004,-5.1919 8.5463,-9.8334 10.6777,-18.1543 1.0657,-4.1604 1.2242,-9.9848 -1.2598,-15.2714 -2.4839,-5.2867 -6.9488,-8.8611 -10.9785,-10.8731 -4.6065,-2.3 -9.1608,-3.3798 -14.1406,-3.9609 -2.6217,-10.416 -3.5533,-18.501 -3.3379,-24.2285 0.2839,-7.5488 1.9732,-10.5967 3.9863,-12.7891 4.0263,-4.3848 16.637,-7.6586 36.1231,-7.4805 19.4861,0.1781 43.6261,2.8591 67.5468,1.75 23.9208,-1.109 49.1016,-6.1574 67.3633,-24.8691 l 1.543,-1.5801 1.0625,-1.9336 c 15.9544,-29.0654 55.6317,-75.0658 66.2812,-139.1504 l -29.998,-10.6953 c -20.2274,35.3007 -49.7676,73.2532 -85.2227,98.2988 -35.455,25.0457 -75.5788,37.5996 -122.1406,25.1446 l -1.789,-0.4785 -1.8497,-0.062 c -24.2204,-0.8135 -39.6688,-8.3166 -52.205,-20.418 -12.5362,-12.1014 -21.9429,-29.7356 -29.4707,-50.6465 -14.7414,-40.9489 -21.1947,-92.7255 -40.5625,-133.37696 -5.2681,-30.40986 10.8006,-61.93034 33.0039,-87.0332 8.201,-3.23923 14.6392,-10.04597 17.914,-16.875 4.2414,-8.84441 5.4486,-18.25257 5.4356,-27.9043 -0.026,-19.30344 -4.7772,-39.66462 -16.4707,-55.09179 -5.8468,-7.71359 -14.7261,-14.92424 -26.4531,-15.71289 z m -2.17,32.2832 c -0.5728,-0.0385 0.4439,-0.1793 2.836,2.97656 4.7841,6.31172 9.8832,22.89173 9.9004,35.58789 0.01,6.34808 -1.215,11.70466 -2.2539,13.8711 -0.1542,0.32134 -0.1662,0.41965 -0.2247,0.59179 l -5.2089,0.45117 -4.2461,4.58985 c -18.6585,20.16395 -35.8734,45.91805 -42.5625,74.7793 -1.5399,-10.57293 -2.5262,-21.02496 -2.6993,-31.29493 14.6613,-57.18205 29.8641,-87.18367 39.0196,-97.11914 4.6391,-5.03439 6.0122,-4.39507 5.4394,-4.43359 z m 857.3223,46.19141 c -8.7626,0.0584 -13.759,5.93975 -15.8672,9.27734 -2.1082,3.33758 -2.9914,6.08727 -3.8301,8.99805 -1.6773,5.82155 -2.6417,12.26532 -3.4043,19.6875 -1.5252,14.84435 -1.9152,33.13803 -1.1015,50.22461 0.6968,14.63224 1.7909,27.41068 5.414,38.62304 -27.4675,134.18659 -104.1196,252.52399 -175.9453,371.58789 -8.1136,7.2685 -14.5779,10.9093 -18.5254,12.0879 -4.2,1.254 -5.3502,0.8532 -7.625,-0.418 -4.5495,-2.5423 -12.9561,-15.0016 -19.2558,-33.5195 -6.2998,-18.5179 -11.4631,-41.7546 -16.9102,-63.4434 -5.2544,-20.9218 -10.1175,-40.0813 -19.6504,-55.0351 -22.4797,-48.4569 -22.2808,-80.3342 -17.7324,-114.8125 4.5662,-34.6132 14.7172,-72.1487 9.9414,-123.42385 l -1.8184,-19.53711 -18.8339,5.50977 c -24.9699,7.30605 -35.7918,31.013 -46.1817,52.94529 -10.3898,21.9323 -20.1081,44.9544 -29.7539,56.2637 l -6.0664,7.1113 3.1309,8.8067 c 77.2363,217.2415 98.9149,464.8959 103.0332,702.5761 -1.7682,68.3738 -26.6714,108.325 -51.8321,120.8692 -12.5977,6.2808 -25.4062,6.8737 -39.4316,1.1582 -13.6908,-5.5792 -28.552,-17.9208 -42.0176,-38.752 -34.933,-98.9883 -18.0331,-210.9207 -18.3652,-321.1816 2.294,-47.7246 6.1763,-105.7761 -4.4317,-159.6641 -10.622,-53.9596 -37.5614,-105.1476 -95.121,-131.4785 l -55.9278,-25.584 36.0996,49.793 c 67.0761,92.5191 73.6777,214.1404 73.459,329.6269 v 1.6602 l 0.3339,1.627 c 8.7795,42.7361 2.0023,90.465 -1.2812,139.6464 -3.2835,49.1815 -2.6929,100.7632 25.8887,148.1465 l 1.3457,2.2324 1.9804,1.6973 c 37.3863,32.0335 84.3443,55.8856 120.7852,84.9785 35.9318,28.6865 61.1159,59.9811 62.4141,109.8848 -10.5522,33.7473 -5.9781,63.0357 9.164,84.9199 15.6413,22.6057 39.8475,37.4365 65.5371,50.7168 29.1022,15.0444 60.1642,28.6044 85.8633,44.3262 41.8409,42.1877 74.8042,91.6969 97.3223,129.998 9.9616,16.9437 17.9143,31.6114 23.9121,42.5528 2.9989,5.4707 5.4896,9.987 7.6523,13.6191 1.0814,1.8161 2.0653,3.3993 3.1719,4.9688 1.1066,1.5694 1.5928,2.9924 5.4844,5.7832 1.9458,1.3953 5.802,4.1918 12.7422,2.9863 6.9402,-1.2056 11.5133,-7.4367 12.6953,-10.5449 2.364,-6.2166 1.2577,-7.5563 1.0703,-9.6368 -0.3749,-4.1609 -1.2459,-8.2799 -2.6055,-14.3828 -2.7192,-12.2058 -7.5142,-31.1911 -14.5449,-59.1836 l -0.5039,-2.0019 -0.9883,-1.8106 c -27.8449,-50.9939 -64.3957,-75.0116 -73.9336,-80.7285 -13.2507,-20.7135 -31.9537,-36.2261 -52.6035,-49.1347 -31.4384,-30.829 -68.1745,-57.9118 -110.3516,-75.0645 -10.7919,-75.0229 -33.6796,-164.6958 -15.9843,-229.2344 l 0.3496,-1.2734 0.1367,-1.3125 c 3.7298,-35.4733 7.0955,-60.8849 4.2793,-118.2559 6.4529,-92.1625 17.1492,-188.912 3.1309,-288.9511 l -0.1895,-1.3516 -0.4141,-1.3027 c -15.8465,-49.8701 -2.2374,-90.3975 23.5508,-131.2286 25.7732,-40.8071 64.0224,-79.6649 93.459,-120.8789 l 0.016,-0.023 c 81.4706,-112.8021 140.2991,-243.7311 117.9981,-383.60938 l -0.043,-0.26757 -0.051,-0.26758 c -2.5053,-12.9078 -4.7974,-22.07054 -7.4199,-29.13672 -1.3113,-3.53309 -2.5875,-6.54088 -4.9434,-9.82617 -2.3558,-3.2853 -7.1104,-8.69117 -15.873,-8.63281 z m -316.1348,161.29493 c -1.5634,27.5504 -6.931,51.611 -10.3769,77.7324 -2.6386,20.0014 -3.5974,41.2612 -0.2305,64.8789 -7.2806,-25.4406 -15.305,-50.5499 -23.9394,-75.3633 12.1991,-17.1956 20.1486,-38.1021 28.5976,-55.9375 1.9617,-4.1411 3.9613,-7.7761 5.9492,-11.3105 z m -271.6386,158.3242 c -3.8451,6.0913 -7.4822,12.0459 -10.7442,17.8223 -9.0149,8.4833 -22.8551,12.4518 -40.3105,13.7402 13.035,-5.6988 25.4385,-12.6533 36.9336,-20.7734 4.845,-3.4226 9.5372,-7.0458 14.1211,-10.7891 z m -220.1348,22.4238 c 13.4075,9.1773 29.5594,15.5176 48.3437,17.8887 -3.3705,2.1674 -6.6101,4.6409 -9.5332,7.8242 -7.7957,8.4899 -11.9935,20.3552 -12.4863,33.4571 -0.4928,13.1018 2.1669,27.8914 7.8379,45.8261 l 3.5293,11.1582 11.2656,0.1368 c -2.8478,3.1025 -5.591,6.1037 -9.332,9.9746 -10.7343,11.107 -23.8752,24.5972 -33.2559,40.8144 -9.0428,15.6331 -14.4261,35.8335 -6.8066,55.5625 1.4346,6.8903 3.547,13.2008 6.1855,19.041 -25.6417,-10.2906 -56.7219,-13.6065 -84.75,-17.414 25.238,-9.4012 48.3137,-24.9173 66.4786,-44.3399 35.4944,-37.9522 51.9855,-94.2904 23.5918,-146.7285 -3.2582,-10.9367 -7.0173,-22.0233 -11.0684,-33.2012 z m 494.7246,12.7637 c 2.2136,5.7018 4.5944,11.49 7.3906,17.4863 l 0.5391,1.1563 0.7148,1.0586 c 4.7128,6.9789 10.8282,25.4675 16.1055,46.4804 5.2773,21.013 10.4717,44.8523 17.6602,65.9825 7.1884,21.1302 15.4028,40.8925 34.1054,51.3437 6.3158,3.5293 13.9159,5.0892 21.6192,4.8145 -25.3722,42.9158 -40.186,92.6828 -22.9707,148.8125 13.1406,94.8574 2.9547,189.0549 -3.5332,282.0176 l -0.068,0.9687 0.049,0.9707 c 2.829,56.1708 -0.2491,77.8941 -4.0136,113.5566 -7.4884,28.2792 -8.8152,58.4782 -6.9844,88.8946 -13.8148,-26.1689 -34.2943,-47.4301 -56.7422,-65.3516 -9.9825,-7.9696 -20.3835,-15.4389 -30.8848,-22.6035 7.5155,-1.2931 14.8687,-3.5927 21.8203,-7.0586 40.8975,-20.39 67.8654,-73.3521 69.7559,-149.2969 l 0.01,-0.3418 -0.01,-0.3398 c -3.3147,-192.2134 -17.9347,-391.9199 -64.5645,-578.5508 z m -330.6504,98.1934 c 0.066,0.1503 0.9307,0.524 1.2793,2.0976 -0.059,-0.093 -0.2356,-0.3275 -0.291,-0.416 -0.7152,-1.1424 -1.1135,-1.9652 -0.9883,-1.6816 z m -64.5078,208.4922 c 19.4384,12.3661 35.4791,26.0133 43.7852,46.8847 -14.0009,-16.2581 -28.6734,-31.8783 -43.7852,-46.8847 z m 181.5859,193.4668 c -1.111,6.9484 -2.2219,13.8985 -3.666,20.7558 l -1.2715,6.0391 3.0743,5.3535 c 3.6065,6.2791 6.7414,19.9781 6.9648,35.0078 0.2234,15.0297 -2.0366,31.5092 -5.9668,44.1465 -3.9302,12.6373 -10.5478,20.1915 -11.4414,20.6328 -0.4468,0.2206 0.8711,0.3644 -0.4336,-0.1855 -0.9816,-0.4139 -3.3007,-1.896 -6.3555,-5.1446 -0.4375,-21.9719 -2.9611,-43.3152 -7.2988,-64.0332 l 13.1992,-28 c 5.3338,-11.3144 9.6439,-22.8705 13.1953,-34.5722 z m 286.8536,417.3007 c 2.465,13.7224 4.8943,27.1514 7.0683,39.9727 -6.8859,-10.8774 -10.0486,-22.9299 -7.0683,-39.9727 z m 291.7187,328.1055 c 0.3742,0.4053 0.3305,0.4958 0.1641,0.2598 -0.026,-0.037 -0.1319,-0.2126 -0.1641,-0.2598 z m -26.666,9.6035 c 0.012,0.091 0.1476,0.7428 0.1523,0.7949 0.017,0.1884 -0.1951,0.041 -0.1523,-0.7949 z"
               id="path5318" />
          </g>
          <g
             id="g5326"
             style="fill:#6c717c;fill-opacity:0.509434">
            <path
               style="color:#000000;fill:#6c717c;fill-opacity:0.509434;stroke:none;-inkscape-stroke:none"
               d="m 1560,2235 c 5.0926,-42.5638 95.5476,-152.6416 68.8671,-44.5145 -7.6722,28.3762 -37.6615,57.1574 -68.8671,44.5145 z"
               id="path5322" />
            <path
               style="color:#000000;fill:#6c717c;fill-opacity:0.509434;stroke:none;-inkscape-stroke:none"
               d="m 1625.5313,2128.1465 c -4.9019,0.064 -8.8156,1.4214 -12.2618,3.039 -6.8924,3.2354 -12.4588,7.8789 -18.1875,13.4375 -11.4573,11.1173 -22.8623,26.2363 -32.289,41.9297 -9.4267,15.6935 -17.0109,31.0918 -18.8575,46.5254 l -1.4687,12.2754 11.459,4.6406 c 21.2343,8.6031 43.3052,2.7405 58.9687,-8.873 15.6636,-11.6135 26.7273,-28.4274 31.5899,-46.4121 l 0.047,-0.1738 0.043,-0.1739 c 3.5133,-14.2381 5.2906,-25.2509 5.3809,-34.5976 0.09,-9.3468 -0.6946,-18.6128 -9.2031,-26.0821 -4.2543,-3.7346 -10.3189,-5.599 -15.2207,-5.5351 z m -8.8555,40.6973 c -0.6816,4.7795 -1.7308,10.4626 -3.4668,17.5312 -2.8342,10.3646 -10.5671,22.067 -19.586,28.7539 -4.1478,3.0754 -8.1934,5.0685 -12.3105,6.084 2.4355,-5.6092 5.5195,-11.8448 9.2168,-18 7.8452,-13.0606 17.8536,-26.0898 26.1465,-34.3691 z"
               id="path5324" />
          </g>
          <g
             id="g5332"
             style="fill:#6c717c;fill-opacity:0.509434">
            <path
               style="color:#000000;fill:#6c717c;fill-opacity:0.509434;stroke:none;-inkscape-stroke:none"
               d="m 1506,2139 c -69.4622,28.0316 -71.6868,-123.8193 -7.995,-36.0119 32.4614,14.7875 65.051,69.0591 7.995,36.0119 z"
               id="path5328" />
            <path
               style="color:#000000;fill:#6c717c;fill-opacity:0.509434;stroke:none;-inkscape-stroke:none"
               d="m 1463.3105,2059.1699 c -1.2213,0.064 -2.4559,0.2113 -3.7031,0.4473 -9.9778,1.8882 -17.1161,9.8639 -20.2558,17.2148 -3.1398,7.3509 -3.8559,14.8981 -3.4356,22.625 0.8407,15.454 6.3992,32.1829 19.1719,44.8711 11.2369,11.1626 29.6938,17.0494 49.0137,12.2383 11.5566,6.6516 19.7232,10.6287 31.6933,8.8262 7.0331,-1.0591 16.0294,-9.3217 17.2637,-16.6934 1.2343,-7.3716 -0.7694,-12.0377 -2.7305,-16.4004 -7.3441,-16.3375 -22.4238,-32.1464 -41.6797,-42.0195 -7.625,-10.1029 -14.6819,-17.6048 -21.8964,-22.8711 -6.9923,-5.104 -14.8917,-8.6874 -23.4415,-8.2383 z m 5.0606,35.0156 c 3.8316,2.947 9.5629,8.688 16.5371,18.3028 l 2.5059,3.4531 3.8847,1.7695 c 2.9002,1.3212 6.0975,3.4831 9.2989,6.0235 l -0.6524,0.2636 c -12.637,5.0997 -16.8625,2.531 -22.0527,-2.625 -5.1903,-5.1559 -9.2312,-15.6449 -9.668,-23.6738 -0.073,-1.3424 0.057,-2.4006 0.1465,-3.5137 z"
               id="path5330" />
          </g>
          <g
             id="g5338"
             style="fill:#6c717c;fill-opacity:0.509434">
            <path
               style="color:#000000;fill:#6c717c;fill-opacity:0.509434;stroke:none;-inkscape-stroke:none"
               d="m 1225,1953 c 115.2434,-10.1473 36.0272,-149.1917 -10.5972,-195.7219 70.7057,-10.5104 187.7258,88.61 111.9255,159.6291 -15.21,22.8358 -104.9574,60.6231 -101.3283,36.0928 z"
               id="path5334" />
            <path
               style="color:#000000;fill:#6c717c;fill-opacity:0.509434;stroke:none;-inkscape-stroke:none"
               d="m 1228.7188,1740.2578 c -5.6208,-0.1258 -11.2012,0.2009 -16.6954,1.0176 l -31.8183,4.7305 22.7695,22.7246 c 20.8516,20.8094 51.7587,66.8138 61.8008,104.2441 5.021,18.7152 4.6336,34.348 -0.5508,44.1289 -5.1843,9.781 -15.2108,17.5418 -40.6445,19.7813 l -12.7168,1.1191 -1.8672,12.6289 c -1.1161,7.5438 3.4949,18.5838 10.4258,22.7031 6.9309,4.1194 12.9071,4.0547 18.6328,3.7383 11.4513,-0.6327 23.5188,-4.2951 36.3789,-9.2676 12.8601,-4.9724 26.0652,-11.3876 37.5293,-18.3457 10.6249,-6.4487 19.5705,-12.6458 26.1973,-21.5449 21.2504,-20.3158 30.474,-45.1017 28.7343,-68.5859 -1.7619,-23.785 -13.4698,-45.4453 -29.4726,-63.5313 -28.0049,-31.6505 -69.3576,-54.6604 -108.7031,-55.541 z m 24.125,37.8438 c 21.6335,7.2715 44.6854,21.4397 60.3457,39.1386 12.6153,14.2577 20.3674,30.0347 21.4375,44.4805 1.07,14.4458 -3.2952,28.33 -19.3594,43.3809 l -1.3672,1.2793 -1.0371,1.5586 c -0.7945,1.1927 -7.0008,6.8754 -15.2539,12.2441 5.2582,-17.5993 3.4473,-36.8474 -1.5821,-55.5938 -8.2532,-30.7628 -25.1936,-61.6112 -43.1835,-86.4882 z"
               id="path5336" />
          </g>
          <g
             id="g5344"
             style="fill:#6c717c;fill-opacity:0.509434">
            <path
               style="color:#000000;fill:#6c717c;fill-opacity:0.509434;stroke:none;-inkscape-stroke:none"
               d="m 1156,1884 c 12.6024,-60.359 60.7695,-111.623 69.2453,-23.1489 -2.1954,37.8141 -44.6973,47.3023 -69.2453,23.1489 z"
               id="path5340" />
            <path
               style="color:#000000;fill:#6c717c;fill-opacity:0.509434;stroke:none;-inkscape-stroke:none"
               d="m 1204.125,1797.2461 c -7.8857,-0.5822 -14.9226,2.0933 -20.6152,5.7012 -22.7706,14.4313 -36.391,44.4269 -43.3477,77.7461 l -1.8047,8.6445 6.2949,6.1953 c 16.3563,16.0933 39.0731,21.4475 58.8887,15.6602 19.8156,-5.7874 36.4122,-24.5446 37.8555,-49.4043 l 0.072,-1.2422 -0.1192,-1.2383 c -2.2718,-23.7141 -6.3691,-39.7659 -16.5957,-51.3574 -5.1133,-5.7958 -12.7432,-10.1229 -20.6289,-10.7051 z m -3.1504,32.957 c 1.85,2.7568 6.069,12.7206 7.9824,30.916 -1.0481,12.0032 -6.6395,16.7214 -14.4882,19.0137 -5.9614,1.7411 -13.3653,1.1103 -20.125,-2.5215 7.0514,-23.2557 20.6981,-43.6636 26.4863,-47.332 0.083,-0.053 0.069,-0.03 0.1445,-0.076 z"
               id="path5342" />
          </g>
        </g>
      </g>
    </g>
  </g>
  <g
     id="layer6"
     style="display:none">
    <path
       style="color:#000000;fill:url(#radialGradient9311);fill-opacity:1;fill-rule:evenodd;stroke:none;stroke-width:0.255751;stroke-opacity:1;-inkscape-stroke:none"
       d="M 0.88227736,-29.992353 V 263.75673 H 294.63138 V -29.992353 Z M 17.509594,-14.402526 H 278.85673 V 246.88765 H 17.509594 Z"
       id="rect8562" />
  </g>
</svg>
