<svg version="1.0" xmlns="http://www.w3.org/2000/svg" width="1593.333" height="1706.667" viewBox="0 0 1195 1280"><path d="M33.6 2.2c-2.2 3.1-2 8.1.8 18.9 3.1 11.8 8.6 25.1 13.8 33.1C53.9 63.1 61.6 70.8 86 92c11.8 10.4 25.4 22.8 30.2 27.6 15.2 15.7 27.8 37.6 46.3 80.7 11.3 26.6 15 34 19 37.7 1.4 1.3 2.5 2.9 2.5 3.5 0 .7-3.5 3.9-7.7 7.2-15 11.6-27.4 24.5-29.6 30.5-1.2 3.3 2 5 8.1 4.2 6.7-.8 6.6-.7-3.6 9-15.8 15-37.3 42.9-40.6 52.9-2.1 6.4-2 8.9.6 12.2 2.1 2.7 2.3 2.7 10.2 2.3 10.7-.6 19.6-3.8 43.3-15.3 10.5-5.1 19.4-9.1 19.6-8.8.3.2-1.4 4.1-3.8 8.6-5.9 11.2-9.2 22.3-11 37.5-3.6 28.5-3.8 29.6-13.5 52.8-9.9 23.6-11.5 27.1-16.6 35.5l-3.3 5.5-12.8 2.7c-30.9 6.4-49.2 15.7-71.5 36.5-7.1 6.5-8 7.1-10.3 6.2-4.4-1.7-13.2-1.2-17.4.9-10.3 5.3-24 25.9-24.1 36.2 0 4 3.8 14.6 7.9 22.4 3.3 6.1 3.9 8.2 4.4 16 .8 10.5 2.7 18.5 6.3 26.1 6.2 13.2 19 25.6 34.3 33.2 4.4 2.3 9.5 5.2 11.3 6.5 5.7 4.2 11.9 6.9 21.2 9 7.9 1.7 13 2 37.8 2.2 15.8 0 29 .4 29.4.7.3.4-1.1 4-3.1 8.2-3.1 6.1-3.7 8.2-3.2 11.2 1.3 8 7.4 10.9 21.1 10.2 11.2-.6 22.1-4.1 39.8-12.8 22.4-10.8 37.8-21.4 55.1-37.9 20.6-19.6 52.7-37.1 68.2-37.1 8.4 0 27 14.8 37.8 30.1 14.3 20.3 23.7 49.7 23.7 74 0 4.6-1.3 16.4-2.9 26.2l-2.9 17.8-10.9 11.2c-40.7 42-43.4 44.5-55.3 51-3.6 2-20.7 9.9-38 17.7-48.5 21.7-57.7 27.5-64.1 40.5-10.4 21.2-4.2 46.5 21.6 88.3 4.7 7.5 8.5 14.6 8.5 15.7 0 1.1-1.4 9.2-3 18-1.7 8.8-2.8 16.9-2.6 18 .4 1.4-.7 3.8-2.8 6.8-9.3 13.1-14.6 34-14.6 58.1 0 20.1 3.6 33.3 11 40.7 3.7 3.7 5.7 4.9 9.1 5.4 22.3 3.2 107-38.2 130.7-63.9 3.5-3.8 4.2-5.2 4.2-8.7 0-6.2-5.3-20.7-13-35.9-3.9-7.4-7-13.8-7-14.2 0-.3 1.3-.9 3-1.3 4.7-1 8-5.7 8-11.6 0-10.2-3.4-14-25.6-28.5-9.4-6.2-14.9-10.4-15.8-12.3-3.5-6.7-7.4-25.8-7.9-38.4l-.2-6.8 13-5.3c20.3-8.2 34.2-15.4 44.1-22.8 2.8-2.1 5.6-3.8 6.2-3.8.6 0 2.3 2.1 3.8 4.7 6.7 11.9 12.3 20.4 23.9 36 6.8 9.2 14.3 20.4 16.5 24.8 9.1 17.9 9.2 35.5.4 67.5-2.9 11-4.7 19.5-5.1 25.5-.9 13.5 2.8 43.1 7.8 62.4 4.1 16 4 18.6-1.6 25.4-6.4 7.9-14.4 14.7-27.6 23.7-6.4 4.3-13.1 9.6-14.9 11.6-2.8 3.2-3.1 4.3-2.7 7.6.5 3.7.3 3.9-4.8 7.3-10.1 6.8-19.5 18.9-27 34.9-5.7 12.1-7.5 19.9-7.5 32.5 0 9.7.1 10.3 2.6 12.6 4.8 4.5 10.7 5 53.4 4.9 49.7-.1 80.1-2 89.1-5.5 3.6-1.4 6.8-8.9 11-25.4 2.9-11.2 3.4-14.7 3.4-25.3 0-6.7.1-12.2.3-12.2.2 0 1.8 1.1 3.6 2.5 4.4 3.4 8.8 4.2 10.9 2 3.8-3.7 1.8-12.6-9.6-42.5-9.8-25.6-11-30.6-11.1-46l-.1-13.5 5.2-15c2.8-8.3 7.6-22.2 10.6-31 10.1-29.1 12.5-42.4 13.4-73 .4-16.9.2-22.6-1.6-36.4-1.3-9.7-1.8-16.8-1.2-17.4.5-.5 2.9.2 5.7 1.6 17.2 8.7 52.2 17.3 89.4 21.9 16.3 2 23 2.2 56.5 2.3 40 0 49.3-.7 72.4-5.5 5.2-1.1 10.2-2 11.2-2 1.3 0 2.8 1.9 4.8 5.8 1.6 3.1 7.2 11.5 12.5 18.7 15.1 20.6 24.3 40.2 24.8 53.1.1 3.6-1 11.8-2.9 20.9-5.3 24.8-6.2 42.8-3.1 63.3l1.1 7.3-10.5 10.4c-9.9 9.7-14.8 16.6-14.8 20.9 0 1-3.3 5.7-7.3 10.4-12.2 14.4-19.8 26.9-26 42.7-6.1 15.5-8.3 31.4-5.3 37.4 2.6 4.9 5.5 5.6 24.1 5.6h17l-.2 3c-.1 1.6-.5 7.8-.9 13.8-.7 10.3-.6 10.8 1.6 13.2 1.3 1.3 5 3.3 8.4 4.4 5.7 1.9 9.1 2.4 28.9 5.1 9.8 1.3 25.1 1.3 37 0 5.1-.5 15.7-1.6 23.7-2.5 18.1-1.9 31.8-4.7 37.9-7.7 8.5-4.2 12.1-14.8 13-38.3l.6-15 3.8.3c2.3.2 4.9-.3 6.2-1.2 5.4-3.5 4.2-13.2-5.1-41.8-8.3-25.6-8.4-37.2-.2-55.3 8.6-19.1 10.5-27.6 11.5-52 .4-10 .1-17.4-1.1-26.2-.9-6.7-1.6-14.5-1.6-17.5 0-11 4.3-23.2 14.8-42.3 8.9-16.3 18.7-29.2 63.2-83.5 43.7-53.4 49.7-61.4 57.7-77.5 8.8-17.6 16.4-42.7 19.9-66 1.8-12.2 2.6-48.4 1.4-70.5l-.5-9.5 6.9-.7c10.3-1.2 19-3.5 27.7-7.2 31.8-13.8 56.6-44.1 61.4-75.2.9-5.4 2-12.3 2.5-15.3 1.2-6.8 1.3-16.6.1-22.8-.5-2.6-1.5-8.2-2.1-12.3-5.7-35-28.2-64.1-59-76.4-17.8-7.1-41.2-9.5-60.9-6.2-31.8 5.3-66.8 17.1-90.5 30.3-11.2 6.3-12.1 6.2-14.4-.5-1.3-3.9-1.2-4.6.8-8.7 1.7-3.5 5.2-6.8 17.3-16.3 34.5-27 47.9-41.6 62-67.2 5.1-9.2 12.1-26.9 15.1-38.1 2.5-9.1 15.7-46.3 22.6-63.4 5.2-13.1 15.6-32.7 24-45.2 4.3-6.5 7.7-12 7.5-12.2-1.2-1.1-16.3 11-40.4 32.2-21.8 19.2-36 28.8-49.6 33.3-10.1 3.3-26.3 11.6-38.5 19.5-12.5 8.2-26.4 22.3-35.9 36.4-11.7 17.3-15.6 22-22.5 26.9-38.5 27.5-63.7 108.1-45.6 146.1 3.4 7.2 9.7 13.8 16.2 17.1 13.5 6.9 35.6 4 59.1-7.7 4.5-2.2 11.4-5.1 15.2-6.4 3.9-1.3 14.3-5.8 23-10 48.1-23.1 71.2-31.3 92.8-33.1 20.9-1.7 35.8 5 50.3 22.3 6.1 7.5 14.3 23.4 16.8 32.8 5.3 20.4 3.7 42.4-4.4 58.5-7.9 15.7-27.8 28.9-50.8 33.7-9.5 1.9-26.4 1.3-33.6-1.2-2.6-1-10.3-5.8-17-10.8-23-17.2-39.4-26.7-60.9-35.2-25.6-10.1-47.9-13.8-84.2-13.8-29 0-37.7 1-75.5 9.2-68.8 14.9-106.6 20.6-142.5 21.7l-18 .6-10.1-5.7c-10.9-6-23.4-15.7-23.4-18.1 0-.9 1.1-1.4 3-1.4 5 0 10-2.6 10-5.1 0-4.1-4.9-8.7-20.7-19.6-21.1-14.4-33.3-26.3-39.2-38.3-4.1-8.5-7-19.2-7.1-26.2 0-3.1.5-4 2.9-5.3 6-3 9.9-13.7 13.1-35.3 2.2-15.1 4-47.9 3.3-58.4-.5-6.5-.4-6.8 2-7.7 1.4-.6 3.4-2.2 4.3-3.6 4-6.1-.5-26.5-10.2-45.7-5.7-11.3-9.2-16.6-15.9-23.7l-5-5.3 4.5-3.7c27.8-22.4 55-63.8 73.7-112.1 5.1-13.3 10.9-24.6 18.3-35.7 9.9-14.8 11.6-16.7 68.4-76.8 24.1-25.5 26.9-30.4 21.1-37.3-2.7-3.2-8.6-5.2-15.6-5.2-4.6 0-21.2 5.4-40.9 13.2-63.2 25.2-175.4 85-218.1 116.3-9.9 7.2-24.9 23.6-32.9 36-9.5 14.5-7.8 13.6-14.4 7.6-8.7-7.9-16.5-13.3-26.3-18.4-15-7.7-27.8-10.4-59.5-12.8-18.4-1.3-33.3-.3-52.4 3.6-6.5 1.4-11.9 2.5-12 2.5-.1 0-2.4-3.5-5-7.8-7.5-12-25-34.8-33.8-44-14.2-14.8-32.9-25.4-70.1-39.6-20.6-7.9-76.9-33.8-84-38.6-2.2-1.5-14.9-13.1-28.2-25.8C47.9 7.9 38.7 0 36.1 0c-.5 0-1.7 1-2.5 2.2z"/></svg>